<?xml version="1.0" encoding="utf-8"?>
<!-- Generator: Adobe Illustrator 23.0.2, SVG Export Plug-In . SVG Version: 6.00 Build 0)  -->
<svg version="1.1" id="Ñëîé_1" xmlns="http://www.w3.org/2000/svg" xmlns:xlink="http://www.w3.org/1999/xlink" x="0px" y="0px"
	 viewBox="0 0 448.5 341" style="enable-background:new 0 0 448.5 341;" xml:space="preserve">
<style type="text/css">
	.st0{display:none;fill:url(#SVGID_1_);}
	.st1{display:none;}
	.st2{display:inline;fill:#FFFFFF;}
	.st3{fill:url(#SVGID_2_);}
	.st4{fill:url(#SVGID_3_);}
	.st5{fill:url(#SVGID_4_);}
	.st6{opacity:0.6;fill:#020230;}
	.st7{fill:url(#SVGID_5_);}
	.st8{fill:url(#SVGID_6_);}
	.st9{fill:url(#SVGID_7_);}
	.st10{fill:url(#SVGID_8_);}
	.st11{fill:#FFFFFF;}
	.st12{opacity:0.4;}
	.st13{fill:#06033E;}
	.st14{fill:url(#SVGID_9_);}
	.st15{fill:url(#SVGID_10_);}
	.st16{opacity:0.4;fill:#06033E;}
	.st17{opacity:0.5;fill:#06033E;}
	.st18{fill:url(#SVGID_11_);}
	.st19{opacity:0.5;}
	.st20{fill:#E8975B;}
	.st21{fill:#F8359E;}
	.st22{fill:url(#SVGID_12_);}
	.st23{fill:url(#SVGID_13_);}
	.st24{fill:url(#SVGID_14_);}
	.st25{fill:url(#SVGID_15_);}
	.st26{fill:url(#SVGID_16_);}
	.st27{fill:url(#SVGID_17_);}
	.st28{fill:url(#SVGID_18_);}
	.st29{fill:#0C0A78;}
	.st30{fill:url(#SVGID_19_);}
	.st31{opacity:0.5;fill:#FFFFFF;}
</style>
<radialGradient id="SVGID_1_" cx="102.8289" cy="109.3353" r="733.4801" gradientTransform="matrix(1.0858 0 0 1.088 -114.0347 -247.0017)" gradientUnits="userSpaceOnUse">
	<stop  offset="3.968250e-03" style="stop-color:#4C02F1"/>
	<stop  offset="8.168010e-03" style="stop-color:#4B02EF"/>
	<stop  offset="0.1263" style="stop-color:#3903C4"/>
	<stop  offset="0.2487" style="stop-color:#29039E"/>
	<stop  offset="0.3765" style="stop-color:#1D0380"/>
	<stop  offset="0.5099" style="stop-color:#130468"/>
	<stop  offset="0.6513" style="stop-color:#0C0457"/>
	<stop  offset="0.8062" style="stop-color:#07044D"/>
	<stop  offset="1" style="stop-color:#06044A"/>
</radialGradient>
<rect x="-68.6" y="-25.9" class="st0" width="600" height="450"/>
<g class="st1">
	<path class="st2" d="M195,383.8v-9.7h3c1.7,0,2.5,0.9,2.5,2.8c0,0.5-0.1,0.9-0.2,1.3c-0.1,0.4-0.3,0.6-0.6,0.8
		c-0.3,0.2-0.5,0.3-0.8,0.4s-0.7,0.1-1.1,0.1H197v4.2H195z M197,378.2h0.6c0.4,0,0.7-0.1,0.9-0.3c0.1-0.2,0.2-0.5,0.2-1
		c0-0.3,0-0.5,0-0.6c0-0.1-0.1-0.3-0.1-0.4c-0.1-0.1-0.2-0.2-0.3-0.3c-0.2-0.1-0.3-0.1-0.6-0.1H197V378.2z"/>
	<path class="st2" d="M201.6,383.8v-9.7h2.5c0.5,0,1,0,1.3,0.1s0.7,0.2,1,0.4c0.3,0.2,0.5,0.5,0.6,0.8c0.1,0.3,0.2,0.8,0.2,1.3
		c0,0.6-0.1,1.1-0.3,1.5c-0.2,0.4-0.5,0.7-0.9,0.9l1.3,4.7h-2l-1.1-4.4h-0.7v4.4H201.6z M203.6,378.3h0.5c0.5,0,0.8-0.1,1-0.3
		c0.2-0.2,0.3-0.6,0.3-1.1c0-0.5-0.1-0.8-0.3-1.1c-0.2-0.2-0.5-0.3-0.9-0.3h-0.6V378.3z"/>
	<path class="st2" d="M211.3,384c-0.5,0-1-0.1-1.3-0.2s-0.7-0.4-0.9-0.6s-0.4-0.6-0.5-1c-0.1-0.4-0.1-0.8-0.1-1.4v-3.6
		c0-0.5,0-1,0.1-1.4c0.1-0.4,0.3-0.7,0.5-1c0.2-0.3,0.5-0.5,0.9-0.6s0.8-0.2,1.3-0.2c1,0,1.8,0.3,2.2,0.8c0.4,0.5,0.7,1.3,0.7,2.4
		v3.6c0,1-0.2,1.8-0.7,2.4C213,383.7,212.3,384,211.3,384z M210.9,382.5c0.1,0,0.2,0.1,0.4,0.1c0.1,0,0.3,0,0.4-0.1
		c0.1,0,0.2-0.1,0.3-0.2c0.1-0.1,0.1-0.2,0.1-0.3c0-0.1,0.1-0.2,0.1-0.3c0-0.1,0-0.2,0-0.4v-4.5c0-0.2,0-0.3,0-0.4
		c0-0.1,0-0.2-0.1-0.3c0-0.1-0.1-0.2-0.1-0.3c-0.1-0.1-0.1-0.1-0.3-0.2c-0.1,0-0.2-0.1-0.4-0.1c-0.1,0-0.3,0-0.4,0.1
		c-0.1,0-0.2,0.1-0.2,0.2c-0.1,0.1-0.1,0.2-0.1,0.3c0,0.1-0.1,0.2-0.1,0.3c0,0.1,0,0.2,0,0.4v4.5c0,0.2,0,0.3,0,0.4
		c0,0.1,0,0.2,0.1,0.3c0,0.1,0.1,0.2,0.1,0.3C210.7,382.4,210.8,382.4,210.9,382.5z"/>
	<path class="st2" d="M217.9,384c-0.5,0-0.9-0.1-1.2-0.2c-0.3-0.2-0.6-0.4-0.8-0.7c-0.2-0.3-0.4-0.7-0.4-1.1
		c-0.1-0.4-0.1-0.9-0.1-1.4v-3.2c0-0.4,0-0.8,0.1-1.2c0.1-0.3,0.2-0.7,0.3-0.9c0.1-0.3,0.3-0.5,0.5-0.7c0.2-0.2,0.5-0.3,0.8-0.4
		c0.3-0.1,0.7-0.2,1.1-0.2c0.5,0,0.9,0.1,1.3,0.2c0.4,0.1,0.7,0.3,0.9,0.6c0.2,0.3,0.4,0.6,0.5,0.9c0.1,0.3,0.1,0.7,0.1,1.2v0.6H219
		v-0.7c0-0.2,0-0.3,0-0.4c0-0.1,0-0.2-0.1-0.4c0-0.1-0.1-0.2-0.1-0.3c-0.1-0.1-0.1-0.1-0.2-0.2c-0.1,0-0.2-0.1-0.4-0.1
		c-0.2,0-0.3,0-0.4,0.1c-0.1,0.1-0.2,0.1-0.3,0.2c-0.1,0.1-0.1,0.2-0.1,0.3c0,0.1-0.1,0.3-0.1,0.4c0,0.1,0,0.3,0,0.4v4.2
		c0,0.5,0.1,0.8,0.2,1.1s0.4,0.4,0.7,0.4c0.4,0,0.6-0.1,0.7-0.4c0.1-0.3,0.2-0.6,0.2-1.1v-1h-1v-1.2h2.7v5h-1.3l-0.1-0.9
		C219.2,383.6,218.7,384,217.9,384z"/>
	<path class="st2" d="M222.3,383.8v-9.7h2.5c0.5,0,1,0,1.3,0.1c0.4,0.1,0.7,0.2,1,0.4c0.3,0.2,0.5,0.5,0.6,0.8
		c0.1,0.3,0.2,0.8,0.2,1.3c0,0.6-0.1,1.1-0.3,1.5c-0.2,0.4-0.5,0.7-0.9,0.9l1.3,4.7h-2l-1.1-4.4h-0.7v4.4H222.3z M224.3,378.3h0.5
		c0.5,0,0.8-0.1,1-0.3c0.2-0.2,0.3-0.6,0.3-1.1c0-0.5-0.1-0.8-0.3-1.1c-0.2-0.2-0.5-0.3-0.9-0.3h-0.6V378.3z"/>
	<path class="st2" d="M228.7,383.8l1.9-9.7h2.2l1.9,9.7h-1.8l-0.4-2.2H231l-0.4,2.2H228.7z M231.2,380.5h1.2l-0.6-3.9L231.2,380.5z"
		/>
	<path class="st2" d="M235.6,383.8l0.2-9.7h2.1l1.2,6.2l1.3-6.2h2l0.2,9.7h-1.4l-0.1-6.6l-1.3,6.6h-1.2l-1.3-6.6l-0.1,6.6H235.6z"/>
	<path class="st2" d="M244,383.8l0.2-9.7h2.1l1.2,6.2l1.3-6.2h2l0.2,9.7h-1.4l-0.1-6.6l-1.3,6.6h-1.2l-1.3-6.6l-0.1,6.6H244z"/>
	<path class="st2" d="M252.3,383.8v-9.7h2v9.7H252.3z"/>
	<path class="st2" d="M255.8,383.8v-9.7h1.4l2.2,5v-5h1.6v9.7h-1.3l-2.2-5.4v5.4H255.8z"/>
	<path class="st2" d="M264.9,384c-0.5,0-0.9-0.1-1.2-0.2c-0.3-0.2-0.6-0.4-0.8-0.7c-0.2-0.3-0.4-0.7-0.4-1.1
		c-0.1-0.4-0.1-0.9-0.1-1.4v-3.2c0-0.4,0-0.8,0.1-1.2c0.1-0.3,0.2-0.7,0.3-0.9c0.1-0.3,0.3-0.5,0.5-0.7c0.2-0.2,0.5-0.3,0.8-0.4
		c0.3-0.1,0.7-0.2,1.1-0.2c0.5,0,0.9,0.1,1.3,0.2c0.4,0.1,0.7,0.3,0.9,0.6c0.2,0.3,0.4,0.6,0.5,0.9c0.1,0.3,0.1,0.7,0.1,1.2v0.6H266
		v-0.7c0-0.2,0-0.3,0-0.4c0-0.1,0-0.2-0.1-0.4c0-0.1-0.1-0.2-0.1-0.3c-0.1-0.1-0.1-0.1-0.2-0.2c-0.1,0-0.2-0.1-0.4-0.1
		c-0.2,0-0.3,0-0.4,0.1c-0.1,0.1-0.2,0.1-0.3,0.2c-0.1,0.1-0.1,0.2-0.1,0.3c0,0.1-0.1,0.3-0.1,0.4c0,0.1,0,0.3,0,0.4v4.2
		c0,0.5,0.1,0.8,0.2,1.1s0.4,0.4,0.7,0.4c0.4,0,0.6-0.1,0.7-0.4c0.1-0.3,0.2-0.6,0.2-1.1v-1h-1v-1.2h2.7v5h-1.3l-0.1-0.9
		C266.2,383.6,265.7,384,264.9,384z"/>
</g>
<linearGradient id="SVGID_2_" gradientUnits="userSpaceOnUse" x1="412.4876" y1="281.0114" x2="445.0989" y2="281.0114">
	<stop  offset="0" style="stop-color:#E39A65"/>
	<stop  offset="1" style="stop-color:#E95F8D"/>
</linearGradient>
<path class="st3" d="M428.8,290.6c-1.2,0-2.4-0.3-3.5-0.9l-11.7-6.8c-0.7-0.4-1.1-1.1-1.1-1.9c0-0.8,0.4-1.5,1.1-1.9l11.7-6.8
	c2.1-1.2,4.8-1.2,7,0l11.7,6.8c0.7,0.4,1.1,1.1,1.1,1.9c0,0.8-0.4,1.5-1.1,1.9l-11.7,6.8C431.2,290.3,430,290.6,428.8,290.6z
	 M428.8,273.3c-0.9,0-1.8,0.2-2.6,0.7l-11.7,6.8c-0.1,0.1-0.2,0.2-0.2,0.3c0,0.1,0,0.2,0.2,0.3l11.7,6.8c0,0,0,0,0,0
	c1.6,0.9,3.5,0.9,5.1,0l11.7-6.8c0.1-0.1,0.2-0.2,0.2-0.3c0-0.1,0-0.2-0.2-0.3l-11.7-6.8C430.6,273.5,429.7,273.3,428.8,273.3z"/>
<linearGradient id="SVGID_3_" gradientUnits="userSpaceOnUse" x1="367.8362" y1="236.3183" x2="422.6146" y2="236.3183">
	<stop  offset="0" style="stop-color:#E39A65"/>
	<stop  offset="1" style="stop-color:#E95F8D"/>
</linearGradient>
<path class="st4" d="M395.2,252.1c-2,0-3.9-0.5-5.7-1.5L369.4,239c-1-0.6-1.5-1.5-1.5-2.7c0-1.1,0.6-2.1,1.5-2.7l20.2-11.7
	c3.5-2,7.8-2,11.3,0l20.2,11.7c1,0.6,1.5,1.5,1.5,2.7c0,1.1-0.6,2.1-1.5,2.7l-20.2,11.7C399.1,251.6,397.2,252.1,395.2,252.1z
	 M390.5,249c2.9,1.7,6.5,1.7,9.5,0l20.2-11.7c0.5-0.3,0.6-0.8,0.6-1c0-0.2-0.1-0.7-0.6-1L400,223.6c-2.9-1.7-6.5-1.7-9.5,0
	l-20.2,11.7c-0.5,0.3-0.6,0.8-0.6,1c0,0.2,0.1,0.7,0.6,1L390.5,249z"/>
<linearGradient id="SVGID_4_" gradientUnits="userSpaceOnUse" x1="6.6136" y1="254.6706" x2="61.3919" y2="254.6706">
	<stop  offset="0" style="stop-color:#E39A65"/>
	<stop  offset="1" style="stop-color:#E95F8D"/>
</linearGradient>
<path class="st5" d="M34,270.5c-2,0-3.9-0.5-5.7-1.5L8.1,257.3c-1-0.6-1.5-1.5-1.5-2.7c0-1.1,0.6-2.1,1.5-2.7l20.2-11.7
	c3.5-2,7.8-2,11.3,0L59.9,252c1,0.6,1.5,1.5,1.5,2.7c0,1.1-0.6,2.1-1.5,2.7L39.7,269C37.9,270,36,270.5,34,270.5z M34,240.7
	c-1.6,0-3.3,0.4-4.7,1.3L9.1,253.6c-0.5,0.3-0.6,0.8-0.6,1c0,0.2,0.1,0.7,0.6,1l20.2,11.7l0,0c2.9,1.7,6.5,1.7,9.5,0l20.2-11.7
	c0.5-0.3,0.6-0.8,0.6-1c0-0.2-0.1-0.7-0.6-1L38.7,242C37.3,241.1,35.6,240.7,34,240.7z"/>
<g>
	<path class="st6" d="M238.5,321.4L94.1,238c-2.1-1.2-1.8-3.3,0.6-4.7l92.7-53.5c2.4-1.4,6.1-1.6,8.2-0.3L340,262.8
		c2.1,1.2,1.8,3.3-0.6,4.7L246.8,321C244.3,322.4,240.7,322.6,238.5,321.4z"/>
	<linearGradient id="SVGID_5_" gradientUnits="userSpaceOnUse" x1="70.388" y1="251.1569" x2="362.7464" y2="251.1569">
		<stop  offset="0" style="stop-color:#E39A65"/>
		<stop  offset="1" style="stop-color:#E95F8D"/>
	</linearGradient>
	<path class="st7" d="M241.9,336.4c-1.7,0-3.3-0.4-4.5-1.1h0L72.5,240.2c-1.3-0.8-2.1-1.9-2.1-3.2c0-1.4,1-2.9,2.8-3.9l112.4-65.8
		c3.1-1.8,7.6-2,10.3-0.4l164.8,95.2c1.3,0.8,2.1,1.9,2.1,3.2c0,1.4-1,2.9-2.8,3.9L247.6,335C246,335.9,243.9,336.4,241.9,336.4z
		 M191.3,167.8c-1.7,0-3.5,0.4-4.9,1.2L74.1,234.8c-1.2,0.7-1.8,1.5-1.8,2.3c0,0.7,0.6,1.2,1.2,1.5l164.8,95.2c0,0,0,0,0,0
		c2.1,1.2,6,1,8.4-0.4l112.4-65.8c1.2-0.7,1.8-1.5,1.8-2.3c0-0.7-0.6-1.2-1.2-1.5l-164.8-95.2C194,168,192.7,167.8,191.3,167.8z"/>
	<radialGradient id="SVGID_6_" cx="231.8744" cy="34.7025" r="223.2961" gradientUnits="userSpaceOnUse">
		<stop  offset="0" style="stop-color:#E39A65"/>
		<stop  offset="0.4742" style="stop-color:#A92FFB"/>
		<stop  offset="0.5947" style="stop-color:#891CFB"/>
		<stop  offset="0.7421" style="stop-color:#6507FA"/>
		<stop  offset="0.8016" style="stop-color:#0D0C6F"/>
	</radialGradient>
	<path class="st8" d="M378.4,123L234.6,39.9c-1-0.6-2-0.7-2.9-0.4v0l0,0c0,0,0,0,0,0l-2.7,0.9l0.9,0.2c-0.4,0.4-0.7,1-0.9,1.6
		l-32.5,105.6c-0.8,2.6,0.4,5.8,2.6,7.1L343,238.1c0.3,0.2,0.7,0.3,1.1,0.4l-0.4,0.8l2.5-0.9l0,0c1-0.4,1.9-1.3,2.3-2.7l32.5-105.6
		C381.9,127.5,380.7,124.3,378.4,123z"/>
	<radialGradient id="SVGID_7_" cx="95.3018" cy="214.0254" r="244.1723" gradientUnits="userSpaceOnUse">
		<stop  offset="0" style="stop-color:#E39A65"/>
		<stop  offset="0.4742" style="stop-color:#A92FFB"/>
		<stop  offset="0.5679" style="stop-color:#891CFB"/>
		<stop  offset="0.6825" style="stop-color:#6507FA"/>
		<stop  offset="0.7381" style="stop-color:#0D0C6F"/>
	</radialGradient>
	<path class="st9" d="M337.8,242L337.8,242l-142-82c-2.1-1.2-5.7-1.1-8.2,0.3l-91.8,53l-3.1-1.2l0.9,4.3l0,0
		c0.1,0.6,0.6,1.3,1.4,1.7L238.4,301c2.1,1.2,5.7,1.1,8.2-0.3l92-53.1c1.1-0.7,1.8-1.5,2-2.3l0,0l0.9-4.2L337.8,242z"/>
	<radialGradient id="SVGID_8_" cx="117.7591" cy="165.0159" r="218.96" gradientUnits="userSpaceOnUse">
		<stop  offset="0" style="stop-color:#E39A65"/>
		<stop  offset="0.4742" style="stop-color:#A92FFB"/>
		<stop  offset="0.5875" style="stop-color:#891CFB"/>
		<stop  offset="0.7262" style="stop-color:#6507FA"/>
		<stop  offset="1" style="stop-color:#3919BB"/>
	</radialGradient>
	<path class="st10" d="M238.5,297.3L94.1,213.9c-2.1-1.2-1.8-3.3,0.6-4.7l92.7-53.5c2.4-1.4,6.1-1.6,8.2-0.3L340,238.7
		c2.1,1.2,1.8,3.3-0.6,4.7l-92.7,53.5C244.3,298.3,240.7,298.5,238.5,297.3z"/>
	<path class="st11" d="M339.5,242.3l-92.7,53.5c-2.4,1.4-6.1,1.6-8.2,0.3L94.1,212.8c-0.7-0.4-1.1-0.9-1.3-1.5
		c-0.3,1,0.1,1.9,1.3,2.6l144.4,83.4c2.1,1.2,5.8,1.1,8.2-0.3l92.7-53.5c1.6-0.9,2.2-2.2,1.9-3.2
		C341.1,240.9,340.5,241.7,339.5,242.3z"/>
	<g class="st12">
		<path class="st13" d="M163,200.3l-4.9-2.8c-0.4-0.2-0.3-0.6,0.1-0.9l5.8-3.3c0.5-0.3,1.1-0.3,1.5-0.1l4.9,2.8
			c0.4,0.2,0.3,0.6-0.1,0.9l-5.8,3.3C164.1,200.5,163.4,200.6,163,200.3z"/>
		<path class="st13" d="M170.5,204.7l-4.9-2.8c-0.4-0.2-0.3-0.6,0.1-0.9l5.8-3.3c0.5-0.3,1.1-0.3,1.5-0.1l4.9,2.8
			c0.4,0.2,0.3,0.6-0.1,0.9l-5.8,3.3C171.6,204.9,170.9,204.9,170.5,204.7z"/>
		<path class="st13" d="M178.1,209l-4.9-2.8c-0.4-0.2-0.3-0.6,0.1-0.9l5.8-3.3c0.5-0.3,1.1-0.3,1.5-0.1l4.9,2.8
			c0.4,0.2,0.3,0.6-0.1,0.9l-5.8,3.3C179.1,209.2,178.5,209.3,178.1,209z"/>
		<path class="st13" d="M188.5,205.5l-4.9-2.8c-0.4-0.2-0.3-0.6,0.1-0.9l4.8-2.8c0.5-0.3,1.1-0.3,1.5-0.1l4.9,2.8
			c0.4,0.2,0.3,0.6-0.1,0.9l-4.8,2.8C189.6,205.6,188.9,205.7,188.5,205.5z"/>
		<path class="st13" d="M196,209.8l-4.9-2.8c-0.4-0.2-0.3-0.6,0.1-0.9l4.8-2.8c0.5-0.3,1.1-0.3,1.5-0.1l4.9,2.8
			c0.4,0.2,0.3,0.6-0.1,0.9l-4.8,2.8C197.1,210,196.4,210,196,209.8z"/>
		<path class="st13" d="M203.5,214.1l-4.9-2.8c-0.4-0.2-0.3-0.6,0.1-0.9l4.8-2.8c0.5-0.3,1.1-0.3,1.5-0.1l4.9,2.8
			c0.4,0.2,0.3,0.6-0.1,0.9l-4.8,2.8C204.6,214.3,203.9,214.4,203.5,214.1z"/>
		<path class="st13" d="M211.1,218.5l-4.9-2.8c-0.4-0.2-0.3-0.6,0.1-0.9l4.8-2.8c0.5-0.3,1.1-0.3,1.5-0.1l4.9,2.8
			c0.4,0.2,0.3,0.6-0.1,0.9l-4.8,2.8C212.2,218.7,211.5,218.7,211.1,218.5z"/>
		<path class="st13" d="M218.6,222.8l-4.9-2.8c-0.4-0.2-0.3-0.6,0.1-0.9l4.8-2.8c0.5-0.3,1.1-0.3,1.5-0.1l4.9,2.8
			c0.4,0.2,0.3,0.6-0.1,0.9l-4.8,2.8C219.7,223,219,223.1,218.6,222.8z"/>
		<path class="st13" d="M226.1,227.2l-4.9-2.8c-0.4-0.2-0.3-0.6,0.1-0.9l4.8-2.8c0.5-0.3,1.1-0.3,1.5-0.1l4.9,2.8
			c0.4,0.2,0.3,0.6-0.1,0.9l-4.8,2.8C227.2,227.4,226.5,227.4,226.1,227.2z"/>
		<path class="st13" d="M233.7,231.5l-4.9-2.8c-0.4-0.2-0.3-0.6,0.1-0.9l4.8-2.8c0.5-0.3,1.1-0.3,1.5-0.1l4.9,2.8
			c0.4,0.2,0.3,0.6-0.1,0.9l-4.8,2.8C234.7,231.7,234.1,231.8,233.7,231.5z"/>
		<path class="st13" d="M241.2,235.9l-4.9-2.8c-0.4-0.2-0.3-0.6,0.1-0.9l4.8-2.8c0.5-0.3,1.1-0.3,1.5-0.1l4.9,2.8
			c0.4,0.2,0.3,0.6-0.1,0.9l-4.8,2.8C242.3,236.1,241.6,236.1,241.2,235.9z"/>
		<path class="st13" d="M248.7,240.2l-4.9-2.8c-0.4-0.2-0.3-0.6,0.1-0.9l4.8-2.8c0.5-0.3,1.1-0.3,1.5-0.1l4.9,2.8
			c0.4,0.2,0.3,0.6-0.1,0.9l-4.8,2.8C249.8,240.4,249.1,240.5,248.7,240.2z"/>
		<path class="st13" d="M256.3,244.6l-4.9-2.8c-0.4-0.2-0.3-0.6,0.1-0.9l4.8-2.8c0.5-0.3,1.1-0.3,1.5-0.1l4.9,2.8
			c0.4,0.2,0.3,0.6-0.1,0.9l-4.8,2.8C257.3,244.8,256.6,244.8,256.3,244.6z"/>
		<path class="st13" d="M199.6,203.4l-4.9-2.8c-0.4-0.2-0.3-0.6,0.1-0.9l4.8-2.8c0.5-0.3,1.1-0.3,1.5-0.1l4.9,2.8
			c0.4,0.2,0.3,0.6-0.1,0.9l-4.8,2.8C200.7,203.6,200,203.6,199.6,203.4z"/>
		<path class="st13" d="M191.9,199l-4.9-2.8c-0.4-0.2-0.3-0.6,0.1-0.9l4.8-2.8c0.5-0.3,1.1-0.3,1.5-0.1l4.9,2.8
			c0.4,0.2,0.3,0.6-0.1,0.9l-4.8,2.8C193,199.2,192.3,199.2,191.9,199z"/>
		<path class="st13" d="M184.3,194.6l-10.5-6.1c-0.4-0.2-0.3-0.6,0.1-0.9l4.8-2.8c0.5-0.3,1.1-0.3,1.5-0.1l10.5,6.1
			c0.4,0.2,0.3,0.6-0.1,0.9l-4.8,2.8C185.4,194.8,184.7,194.8,184.3,194.6z"/>
		<path class="st13" d="M189.6,189.2l-8.5-4.9c-0.4-0.2-0.3-0.6,0.1-0.9l4.8-2.8c0.5-0.3,1.1-0.3,1.5-0.1l8.5,4.9
			c0.4,0.2,0.3,0.6-0.1,0.9l-4.8,2.8C190.7,189.4,190,189.4,189.6,189.2z"/>
		<path class="st13" d="M207.1,207.7l-4.9-2.8c-0.4-0.2-0.3-0.6,0.1-0.9l4.8-2.8c0.5-0.3,1.1-0.3,1.5-0.1l4.9,2.8
			c0.4,0.2,0.3,0.6-0.1,0.9l-4.8,2.8C208.2,207.9,207.5,208,207.1,207.7z"/>
		<path class="st13" d="M214.6,212.1l-4.9-2.8c-0.4-0.2-0.3-0.6,0.1-0.9l4.8-2.8c0.5-0.3,1.1-0.3,1.5-0.1l4.9,2.8
			c0.4,0.2,0.3,0.6-0.1,0.9l-4.8,2.8C215.7,212.3,215,212.3,214.6,212.1z"/>
		<path class="st13" d="M222.2,216.4l-4.9-2.8c-0.4-0.2-0.3-0.6,0.1-0.9l4.8-2.8c0.5-0.3,1.1-0.3,1.5-0.1l4.9,2.8
			c0.4,0.2,0.3,0.6-0.1,0.9l-4.8,2.8C223.2,216.6,222.6,216.7,222.2,216.4z"/>
		<path class="st13" d="M229.7,220.8l-4.9-2.8c-0.4-0.2-0.3-0.6,0.1-0.9l4.8-2.8c0.5-0.3,1.1-0.3,1.5-0.1l4.9,2.8
			c0.4,0.2,0.3,0.6-0.1,0.9l-4.8,2.8C230.8,221,230.1,221,229.7,220.8z"/>
		<path class="st13" d="M237.2,225.1l-4.9-2.8c-0.4-0.2-0.3-0.6,0.1-0.9l4.8-2.8c0.5-0.3,1.1-0.3,1.5-0.1l4.9,2.8
			c0.4,0.2,0.3,0.6-0.1,0.9l-4.8,2.8C238.3,225.3,237.6,225.4,237.2,225.1z"/>
		<path class="st13" d="M244.8,229.5l-4.9-2.8c-0.4-0.2-0.3-0.6,0.1-0.9l4.8-2.8c0.5-0.3,1.1-0.3,1.5-0.1l4.9,2.8
			c0.4,0.2,0.3,0.6-0.1,0.9l-4.8,2.8C245.8,229.7,245.2,229.7,244.8,229.5z"/>
		<path class="st13" d="M252.3,233.8l-4.9-2.8c-0.4-0.2-0.3-0.6,0.1-0.9l4.8-2.8c0.5-0.3,1.1-0.3,1.5-0.1l4.9,2.8
			c0.4,0.2,0.3,0.6-0.1,0.9l-4.8,2.8C253.4,234,252.7,234.1,252.3,233.8z"/>
		<path class="st13" d="M259.8,238.2l-4.9-2.8c-0.4-0.2-0.3-0.6,0.1-0.9l4.8-2.8c0.5-0.3,1.1-0.3,1.5-0.1l4.9,2.8
			c0.4,0.2,0.3,0.6-0.1,0.9l-4.8,2.8C260.9,238.4,260.2,238.4,259.8,238.2z"/>
		<path class="st13" d="M267.4,242.5l-4.9-2.8c-0.4-0.2-0.3-0.6,0.1-0.9l4.8-2.8c0.5-0.3,1.1-0.3,1.5-0.1l4.9,2.8
			c0.4,0.2,0.3,0.6-0.1,0.9l-4.8,2.8C268.4,242.7,267.7,242.7,267.4,242.5z"/>
		<path class="st13" d="M280.7,250.3l-10.6-6.1c-0.4-0.2-0.3-0.6,0.1-0.9l4.8-2.8c0.5-0.3,1.1-0.3,1.5-0.1l10.6,6.1
			c0.4,0.2,0.3,0.6-0.1,0.9l-4.8,2.8C281.8,250.4,281.1,250.5,280.7,250.3z"/>
		<path class="st13" d="M295.4,241.8l-9-5.2c-0.4-0.2-0.3-0.6,0.1-0.9l4.8-2.8c0.5-0.3,1.1-0.3,1.5-0.1l9,5.2
			c0.4,0.2,0.3,0.6-0.1,0.9l-4.8,2.8C296.5,242,295.8,242,295.4,241.8z"/>
		<path class="st13" d="M220.3,206.9l-4.9-2.8c-0.4-0.2-0.3-0.6,0.1-0.9l4.8-2.8c0.5-0.3,1.1-0.3,1.5-0.1l4.9,2.8
			c0.4,0.2,0.3,0.6-0.1,0.9l-4.8,2.8C221.4,207.1,220.7,207.1,220.3,206.9z"/>
		<path class="st13" d="M212.6,202.4l-4.9-2.8c-0.4-0.2-0.3-0.6,0.1-0.9l4.8-2.8c0.5-0.3,1.1-0.3,1.5-0.1l4.9,2.8
			c0.4,0.2,0.3,0.6-0.1,0.9l-4.8,2.8C213.7,202.6,213,202.7,212.6,202.4z"/>
		<path class="st13" d="M204.9,198l-4.9-2.8c-0.4-0.2-0.3-0.6,0.1-0.9l4.8-2.8c0.5-0.3,1.1-0.3,1.5-0.1l4.9,2.8
			c0.4,0.2,0.3,0.6-0.1,0.9l-4.8,2.8C205.9,198.2,205.3,198.2,204.9,198z"/>
		<path class="st13" d="M197.1,193.5l-4.9-2.8c-0.4-0.2-0.3-0.6,0.1-0.9l4.8-2.8c0.5-0.3,1.1-0.3,1.5-0.1l4.9,2.8
			c0.4,0.2,0.3,0.6-0.1,0.9l-4.8,2.8C198.2,193.7,197.5,193.7,197.1,193.5z"/>
		<path class="st13" d="M227.8,211.2l-4.9-2.8c-0.4-0.2-0.3-0.6,0.1-0.9l4.8-2.8c0.5-0.3,1.1-0.3,1.5-0.1l4.9,2.8
			c0.4,0.2,0.3,0.6-0.1,0.9l-4.8,2.8C228.9,211.4,228.2,211.5,227.8,211.2z"/>
		<path class="st13" d="M235.4,215.6l-4.9-2.8c-0.4-0.2-0.3-0.6,0.1-0.9l4.8-2.8c0.5-0.3,1.1-0.3,1.5-0.1l4.9,2.8
			c0.4,0.2,0.3,0.6-0.1,0.9l-4.8,2.8C236.4,215.8,235.7,215.8,235.4,215.6z"/>
		<path class="st13" d="M242.9,219.9l-4.9-2.8c-0.4-0.2-0.3-0.6,0.1-0.9l4.8-2.8c0.5-0.3,1.1-0.3,1.5-0.1l4.9,2.8
			c0.4,0.2,0.3,0.6-0.1,0.9l-4.8,2.8C244,220.1,243.3,220.2,242.9,219.9z"/>
		<path class="st13" d="M250.4,224.3l-4.9-2.8c-0.4-0.2-0.3-0.6,0.1-0.9l4.8-2.8c0.5-0.3,1.1-0.3,1.5-0.1l4.9,2.8
			c0.4,0.2,0.3,0.6-0.1,0.9l-4.8,2.8C251.5,224.5,250.8,224.5,250.4,224.3z"/>
		<path class="st13" d="M257.9,228.6l-4.9-2.8c-0.4-0.2-0.3-0.6,0.1-0.9l4.8-2.8c0.5-0.3,1.1-0.3,1.5-0.1l4.9,2.8
			c0.4,0.2,0.3,0.6-0.1,0.9l-4.8,2.8C259,228.8,258.3,228.9,257.9,228.6z"/>
		<path class="st13" d="M265.5,233l-4.9-2.8c-0.4-0.2-0.3-0.6,0.1-0.9l4.8-2.8c0.5-0.3,1.1-0.3,1.5-0.1l4.9,2.8
			c0.4,0.2,0.3,0.6-0.1,0.9l-4.8,2.8C266.6,233.2,265.9,233.2,265.5,233z"/>
		<path class="st13" d="M273,237.3l-4.9-2.8c-0.4-0.2-0.3-0.6,0.1-0.9l4.8-2.8c0.5-0.3,1.1-0.3,1.5-0.1l4.9,2.8
			c0.4,0.2,0.3,0.6-0.1,0.9l-4.8,2.8C274.1,237.5,273.4,237.5,273,237.3z"/>
		<path class="st13" d="M280.5,241.7l-4.9-2.8c-0.4-0.2-0.3-0.6,0.1-0.9l4.8-2.8c0.5-0.3,1.1-0.3,1.5-0.1l4.9,2.8
			c0.4,0.2,0.3,0.6-0.1,0.9l-4.8,2.8C281.6,241.9,280.9,241.9,280.5,241.7z"/>
		<path class="st13" d="M288.1,246l-4.9-2.8c-0.4-0.2-0.3-0.6,0.1-0.9l4.8-2.8c0.5-0.3,1.1-0.3,1.5-0.1l4.9,2.8
			c0.4,0.2,0.3,0.6-0.1,0.9l-4.8,2.8C289.1,246.2,288.5,246.2,288.1,246z"/>
		<path class="st13" d="M216.3,196.1l-4.9-2.8c-0.4-0.2-0.3-0.6,0.1-0.9l4.8-2.8c0.5-0.3,1.1-0.3,1.5-0.1l4.9,2.8
			c0.4,0.2,0.3,0.6-0.1,0.9l-4.8,2.8C217.4,196.3,216.7,196.4,216.3,196.1z"/>
		<path class="st13" d="M208.8,191.8L204,189c-0.4-0.2-0.3-0.6,0.1-0.9l4.8-2.8c0.5-0.3,1.1-0.3,1.5-0.1l4.9,2.8
			c0.4,0.2,0.3,0.6-0.1,0.9l-4.8,2.8C209.9,192,209.2,192,208.8,191.8z"/>
		<path class="st13" d="M201.3,187.5l-4.9-2.8c-0.4-0.2-0.3-0.6,0.1-0.9l4.8-2.8c0.5-0.3,1.1-0.3,1.5-0.1l4.9,2.8
			c0.4,0.2,0.3,0.6-0.1,0.9l-4.8,2.8C202.4,187.7,201.7,187.7,201.3,187.5z"/>
		<path class="st13" d="M193.9,183.2l-4.9-2.8c-0.4-0.2-0.3-0.6,0.1-0.9l4.8-2.8c0.5-0.3,1.1-0.3,1.5-0.1l4.9,2.8
			c0.4,0.2,0.3,0.6-0.1,0.9l-4.8,2.8C194.9,183.4,194.2,183.4,193.9,183.2z"/>
		<path class="st13" d="M201.6,178.7l-4.9-2.8c-0.4-0.2-0.3-0.6,0.1-0.9l1.6-0.9c0.5-0.3,1.1-0.3,1.5-0.1l4.9,2.8
			c0.4,0.2,0.3,0.6-0.1,0.9l-1.6,0.9C202.6,178.9,202,178.9,201.6,178.7z"/>
		<path class="st13" d="M211.3,184.4l-4.9-2.8c-0.4-0.2-0.3-0.6,0.1-0.9l1.6-0.9c0.5-0.3,1.1-0.3,1.5-0.1l4.9,2.8
			c0.4,0.2,0.3,0.6-0.1,0.9l-1.6,0.9C212.4,184.6,211.7,184.6,211.3,184.4z"/>
		<path class="st13" d="M218.8,188.7l-4.9-2.8c-0.4-0.2-0.3-0.6,0.1-0.9l1.6-0.9c0.5-0.3,1.1-0.3,1.5-0.1l4.9,2.8
			c0.4,0.2,0.3,0.6-0.1,0.9l-1.6,0.9C219.9,188.9,219.2,188.9,218.8,188.7z"/>
		<path class="st13" d="M226.3,193l-4.9-2.8c-0.4-0.2-0.3-0.6,0.1-0.9l1.6-0.9c0.5-0.3,1.1-0.3,1.5-0.1l4.9,2.8
			c0.4,0.2,0.3,0.6-0.1,0.9l-1.6,0.9C227.3,193.2,226.7,193.2,226.3,193z"/>
		<path class="st13" d="M233.7,197.3l-4.9-2.8c-0.4-0.2-0.3-0.6,0.1-0.9l1.6-0.9c0.5-0.3,1.1-0.3,1.5-0.1l4.9,2.8
			c0.4,0.2,0.3,0.6-0.1,0.9l-1.6,0.9C234.8,197.5,234.1,197.5,233.7,197.3z"/>
		<path class="st13" d="M275.4,221.3l-4.9-2.8c-0.4-0.2-0.3-0.6,0.1-0.9l1.6-0.9c0.5-0.3,1.1-0.3,1.5-0.1l4.9,2.8
			c0.4,0.2,0.3,0.6-0.1,0.9l-1.6,0.9C276.5,221.5,275.8,221.6,275.4,221.3z"/>
		<path class="st13" d="M282.8,225.6l-4.9-2.8c-0.4-0.2-0.3-0.6,0.1-0.9l1.6-0.9c0.5-0.3,1.1-0.3,1.5-0.1l4.9,2.8
			c0.4,0.2,0.3,0.6-0.1,0.9l-1.6,0.9C283.9,225.8,283.2,225.9,282.8,225.6z"/>
		<path class="st13" d="M290.3,229.9l-4.9-2.8c-0.4-0.2-0.3-0.6,0.1-0.9l1.6-0.9c0.5-0.3,1.1-0.3,1.5-0.1l4.9,2.8
			c0.4,0.2,0.3,0.6-0.1,0.9l-1.6,0.9C291.4,230.1,290.7,230.2,290.3,229.9z"/>
		<path class="st13" d="M297.8,234.3l-4.9-2.8c-0.4-0.2-0.3-0.6,0.1-0.9l1.6-0.9c0.5-0.3,1.1-0.3,1.5-0.1l4.9,2.8
			c0.4,0.2,0.3,0.6-0.1,0.9l-1.6,0.9C298.8,234.5,298.2,234.5,297.8,234.3z"/>
		<path class="st13" d="M223.9,200.5l-4.9-2.8c-0.4-0.2-0.3-0.6,0.1-0.9l4.8-2.8c0.5-0.3,1.1-0.3,1.5-0.1l4.9,2.8
			c0.4,0.2,0.3,0.6-0.1,0.9l-4.8,2.8C224.9,200.7,224.3,200.7,223.9,200.5z"/>
		<path class="st13" d="M231.4,204.8l-4.9-2.8c-0.4-0.2-0.3-0.6,0.1-0.9l4.8-2.8c0.5-0.3,1.1-0.3,1.5-0.1l4.9,2.8
			c0.4,0.2,0.3,0.6-0.1,0.9l-4.8,2.8C232.5,205,231.8,205.1,231.4,204.8z"/>
		<path class="st13" d="M238.9,209.2l-4.9-2.8c-0.4-0.2-0.3-0.6,0.1-0.9l4.8-2.8c0.5-0.3,1.1-0.3,1.5-0.1l4.9,2.8
			c0.4,0.2,0.3,0.6-0.1,0.9l-4.8,2.8C240,209.4,239.3,209.4,238.9,209.2z"/>
		<path class="st13" d="M246.5,213.5l-4.9-2.8c-0.4-0.2-0.3-0.6,0.1-0.9l4.8-2.8c0.5-0.3,1.1-0.3,1.5-0.1l4.9,2.8
			c0.4,0.2,0.3,0.6-0.1,0.9l-4.8,2.8C247.5,213.7,246.8,213.8,246.5,213.5z"/>
		<path class="st13" d="M254,217.9l-4.9-2.8c-0.4-0.2-0.3-0.6,0.1-0.9l4.8-2.8c0.5-0.3,1.1-0.3,1.5-0.1l4.9,2.8
			c0.4,0.2,0.3,0.6-0.1,0.9l-4.8,2.8C255.1,218.1,254.4,218.1,254,217.9z"/>
		<path class="st13" d="M261.5,222.2l-4.9-2.8c-0.4-0.2-0.3-0.6,0.1-0.9l4.8-2.8c0.5-0.3,1.1-0.3,1.5-0.1l4.9,2.8
			c0.4,0.2,0.3,0.6-0.1,0.9l-4.8,2.8C262.6,222.4,261.9,222.4,261.5,222.2z"/>
		<path class="st13" d="M269,226.6l-4.9-2.8c-0.4-0.2-0.3-0.6,0.1-0.9l4.8-2.8c0.5-0.3,1.1-0.3,1.5-0.1l4.9,2.8
			c0.4,0.2,0.3,0.6-0.1,0.9l-4.8,2.8C270.1,226.8,269.4,226.8,269,226.6z"/>
		<path class="st13" d="M276.6,230.9l-4.9-2.8c-0.4-0.2-0.3-0.6,0.1-0.9l4.8-2.8c0.5-0.3,1.1-0.3,1.5-0.1l4.9,2.8
			c0.4,0.2,0.3,0.6-0.1,0.9l-4.8,2.8C277.7,231.1,277,231.1,276.6,230.9z"/>
		<path class="st13" d="M284.1,235.3l-4.9-2.8c-0.4-0.2-0.3-0.6,0.1-0.9l4.8-2.8c0.5-0.3,1.1-0.3,1.5-0.1l4.9,2.8
			c0.4,0.2,0.3,0.6-0.1,0.9l-4.8,2.8C285.2,235.5,284.5,235.5,284.1,235.3z"/>
		<path class="st13" d="M180.8,201l-14.4-8.3c-0.4-0.2-0.3-0.6,0.1-0.9l4.8-2.8c0.5-0.3,1.1-0.3,1.5-0.1l14.4,8.3
			c0.4,0.2,0.3,0.6-0.1,0.9l-4.8,2.8C181.9,201.2,181.2,201.2,180.8,201z"/>
		<path class="st13" d="M273.3,254.4l-14.4-8.3c-0.4-0.2-0.3-0.6,0.1-0.9l4.8-2.8c0.5-0.3,1.1-0.3,1.5-0.1l14.4,8.3
			c0.4,0.2,0.3,0.6-0.1,0.9l-4.8,2.8C274.4,254.6,273.7,254.7,273.3,254.4z"/>
		<path class="st13" d="M243.2,246.6l-4.9-2.8c-0.4-0.2-0.3-0.6,0.1-0.9l5.8-3.3c0.5-0.3,1.1-0.3,1.5-0.1l4.9,2.8
			c0.4,0.2,0.3,0.6-0.1,0.9l-5.8,3.3C244.3,246.8,243.6,246.9,243.2,246.6z"/>
		<path class="st13" d="M188.5,215.1l-7.8-4.5c-0.4-0.2-0.3-0.6,0.1-0.9l5.8-3.3c0.5-0.3,1.1-0.3,1.5-0.1l7.8,4.5
			c0.4,0.2,0.3,0.6-0.1,0.9l-5.8,3.3C189.6,215.3,188.9,215.3,188.5,215.1z"/>
		<path class="st13" d="M236,242.5l-7.8-4.5c-0.4-0.2-0.3-0.6,0.1-0.9l5.8-3.3c0.5-0.3,1.1-0.3,1.5-0.1l7.8,4.5
			c0.4,0.2,0.3,0.6-0.1,0.9l-5.8,3.3C237,242.7,236.3,242.7,236,242.5z"/>
		<path class="st13" d="M199.4,221.3l-7.8-4.5c-0.4-0.2-0.3-0.6,0.1-0.9l5.8-3.3c0.5-0.3,1.1-0.3,1.5-0.1l7.8,4.5
			c0.4,0.2,0.3,0.6-0.1,0.9l-5.8,3.3C200.5,221.5,199.8,221.6,199.4,221.3z"/>
		<path class="st13" d="M199,212.6l33.9,19.6c0.4,0.2,0.4,0.6,0,0.9l-5.9,3.4c-0.4,0.2-1.1,0.2-1.5,0l-33.9-19.6L199,212.6z"/>
		<path class="st13" d="M264.3,254.5l5.4,3.1c0.3,0.2,0.3,0.5-0.1,0.7l-2.4,1.4c-0.4,0.2-0.9,0.2-1.3,0.1l-5.4-3.1
			c-0.3-0.2-0.3-0.5,0.1-0.7l2.4-1.4C263.4,254.4,263.9,254.3,264.3,254.5z"/>
		<path class="st13" d="M256.7,250.1l5.4,3.1c0.3,0.2,0.3,0.5-0.1,0.7l-2.4,1.4c-0.4,0.2-0.9,0.2-1.3,0.1l-5.4-3.1
			c-0.3-0.2-0.3-0.5,0.1-0.7l2.4-1.4C255.8,250,256.3,250,256.7,250.1z"/>
		<path class="st13" d="M249.1,245.8l5.4,3.1c0.3,0.2,0.3,0.5-0.1,0.7l-2.4,1.4c-0.4,0.2-0.9,0.2-1.3,0.1l-5.4-3.1
			c-0.3-0.2-0.3-0.5,0.1-0.7l2.4-1.4C248.2,245.6,248.8,245.6,249.1,245.8z"/>
		<path class="st13" d="M260.8,247.7l5.4,3.1c0.3,0.2,0.3,0.5-0.1,0.7l-2.4,1.4c-0.4,0.2-0.9,0.2-1.3,0.1l-5.4-3.1
			c-0.3-0.2-0.3-0.5,0.1-0.7l2.4-1.4C259.9,247.6,260.5,247.6,260.8,247.7z"/>
	</g>
	<g class="st12">
		<path class="st13" d="M163,200.3l-4.9-2.8c-0.4-0.2-0.3-0.6,0.1-0.9l5.8-3.3c0.5-0.3,1.1-0.3,1.5-0.1l4.9,2.8
			c0.4,0.2,0.3,0.6-0.1,0.9l-5.8,3.3C164.1,200.5,163.4,200.6,163,200.3z"/>
		<path class="st13" d="M170.5,204.7l-4.9-2.8c-0.4-0.2-0.3-0.6,0.1-0.9l5.8-3.3c0.5-0.3,1.1-0.3,1.5-0.1l4.9,2.8
			c0.4,0.2,0.3,0.6-0.1,0.9l-5.8,3.3C171.6,204.9,170.9,204.9,170.5,204.7z"/>
		<path class="st13" d="M178.1,209l-4.9-2.8c-0.4-0.2-0.3-0.6,0.1-0.9l5.8-3.3c0.5-0.3,1.1-0.3,1.5-0.1l4.9,2.8
			c0.4,0.2,0.3,0.6-0.1,0.9l-5.8,3.3C179.1,209.2,178.5,209.3,178.1,209z"/>
		<path class="st13" d="M188.5,205.5l-4.9-2.8c-0.4-0.2-0.3-0.6,0.1-0.9l4.8-2.8c0.5-0.3,1.1-0.3,1.5-0.1l4.9,2.8
			c0.4,0.2,0.3,0.6-0.1,0.9l-4.8,2.8C189.6,205.6,188.9,205.7,188.5,205.5z"/>
		<path class="st13" d="M196,209.8l-4.9-2.8c-0.4-0.2-0.3-0.6,0.1-0.9l4.8-2.8c0.5-0.3,1.1-0.3,1.5-0.1l4.9,2.8
			c0.4,0.2,0.3,0.6-0.1,0.9l-4.8,2.8C197.1,210,196.4,210,196,209.8z"/>
		<path class="st13" d="M203.5,214.1l-4.9-2.8c-0.4-0.2-0.3-0.6,0.1-0.9l4.8-2.8c0.5-0.3,1.1-0.3,1.5-0.1l4.9,2.8
			c0.4,0.2,0.3,0.6-0.1,0.9l-4.8,2.8C204.6,214.3,203.9,214.4,203.5,214.1z"/>
		<path class="st13" d="M211.1,218.5l-4.9-2.8c-0.4-0.2-0.3-0.6,0.1-0.9l4.8-2.8c0.5-0.3,1.1-0.3,1.5-0.1l4.9,2.8
			c0.4,0.2,0.3,0.6-0.1,0.9l-4.8,2.8C212.2,218.7,211.5,218.7,211.1,218.5z"/>
		<path class="st13" d="M218.6,222.8l-4.9-2.8c-0.4-0.2-0.3-0.6,0.1-0.9l4.8-2.8c0.5-0.3,1.1-0.3,1.5-0.1l4.9,2.8
			c0.4,0.2,0.3,0.6-0.1,0.9l-4.8,2.8C219.7,223,219,223.1,218.6,222.8z"/>
		<path class="st13" d="M226.1,227.2l-4.9-2.8c-0.4-0.2-0.3-0.6,0.1-0.9l4.8-2.8c0.5-0.3,1.1-0.3,1.5-0.1l4.9,2.8
			c0.4,0.2,0.3,0.6-0.1,0.9l-4.8,2.8C227.2,227.4,226.5,227.4,226.1,227.2z"/>
		<path class="st13" d="M233.7,231.5l-4.9-2.8c-0.4-0.2-0.3-0.6,0.1-0.9l4.8-2.8c0.5-0.3,1.1-0.3,1.5-0.1l4.9,2.8
			c0.4,0.2,0.3,0.6-0.1,0.9l-4.8,2.8C234.7,231.7,234.1,231.8,233.7,231.5z"/>
		<path class="st13" d="M241.2,235.9l-4.9-2.8c-0.4-0.2-0.3-0.6,0.1-0.9l4.8-2.8c0.5-0.3,1.1-0.3,1.5-0.1l4.9,2.8
			c0.4,0.2,0.3,0.6-0.1,0.9l-4.8,2.8C242.3,236.1,241.6,236.1,241.2,235.9z"/>
		<path class="st13" d="M248.7,240.2l-4.9-2.8c-0.4-0.2-0.3-0.6,0.1-0.9l4.8-2.8c0.5-0.3,1.1-0.3,1.5-0.1l4.9,2.8
			c0.4,0.2,0.3,0.6-0.1,0.9l-4.8,2.8C249.8,240.4,249.1,240.5,248.7,240.2z"/>
		<path class="st13" d="M256.3,244.6l-4.9-2.8c-0.4-0.2-0.3-0.6,0.1-0.9l4.8-2.8c0.5-0.3,1.1-0.3,1.5-0.1l4.9,2.8
			c0.4,0.2,0.3,0.6-0.1,0.9l-4.8,2.8C257.3,244.8,256.6,244.8,256.3,244.6z"/>
		<path class="st13" d="M199.6,203.4l-4.9-2.8c-0.4-0.2-0.3-0.6,0.1-0.9l4.8-2.8c0.5-0.3,1.1-0.3,1.5-0.1l4.9,2.8
			c0.4,0.2,0.3,0.6-0.1,0.9l-4.8,2.8C200.7,203.6,200,203.6,199.6,203.4z"/>
		<path class="st13" d="M191.9,199l-4.9-2.8c-0.4-0.2-0.3-0.6,0.1-0.9l4.8-2.8c0.5-0.3,1.1-0.3,1.5-0.1l4.9,2.8
			c0.4,0.2,0.3,0.6-0.1,0.9l-4.8,2.8C193,199.2,192.3,199.2,191.9,199z"/>
		<path class="st13" d="M184.3,194.6l-10.5-6.1c-0.4-0.2-0.3-0.6,0.1-0.9l4.8-2.8c0.5-0.3,1.1-0.3,1.5-0.1l10.5,6.1
			c0.4,0.2,0.3,0.6-0.1,0.9l-4.8,2.8C185.4,194.8,184.7,194.8,184.3,194.6z"/>
		<path class="st13" d="M189.6,189.2l-8.5-4.9c-0.4-0.2-0.3-0.6,0.1-0.9l4.8-2.8c0.5-0.3,1.1-0.3,1.5-0.1l8.5,4.9
			c0.4,0.2,0.3,0.6-0.1,0.9l-4.8,2.8C190.7,189.4,190,189.4,189.6,189.2z"/>
		<path class="st13" d="M207.1,207.7l-4.9-2.8c-0.4-0.2-0.3-0.6,0.1-0.9l4.8-2.8c0.5-0.3,1.1-0.3,1.5-0.1l4.9,2.8
			c0.4,0.2,0.3,0.6-0.1,0.9l-4.8,2.8C208.2,207.9,207.5,208,207.1,207.7z"/>
		<path class="st13" d="M214.6,212.1l-4.9-2.8c-0.4-0.2-0.3-0.6,0.1-0.9l4.8-2.8c0.5-0.3,1.1-0.3,1.5-0.1l4.9,2.8
			c0.4,0.2,0.3,0.6-0.1,0.9l-4.8,2.8C215.7,212.3,215,212.3,214.6,212.1z"/>
		<path class="st13" d="M222.2,216.4l-4.9-2.8c-0.4-0.2-0.3-0.6,0.1-0.9l4.8-2.8c0.5-0.3,1.1-0.3,1.5-0.1l4.9,2.8
			c0.4,0.2,0.3,0.6-0.1,0.9l-4.8,2.8C223.2,216.6,222.6,216.7,222.2,216.4z"/>
		<path class="st13" d="M229.7,220.8l-4.9-2.8c-0.4-0.2-0.3-0.6,0.1-0.9l4.8-2.8c0.5-0.3,1.1-0.3,1.5-0.1l4.9,2.8
			c0.4,0.2,0.3,0.6-0.1,0.9l-4.8,2.8C230.8,221,230.1,221,229.7,220.8z"/>
		<path class="st13" d="M237.2,225.1l-4.9-2.8c-0.4-0.2-0.3-0.6,0.1-0.9l4.8-2.8c0.5-0.3,1.1-0.3,1.5-0.1l4.9,2.8
			c0.4,0.2,0.3,0.6-0.1,0.9l-4.8,2.8C238.3,225.3,237.6,225.4,237.2,225.1z"/>
		<path class="st13" d="M244.8,229.5l-4.9-2.8c-0.4-0.2-0.3-0.6,0.1-0.9l4.8-2.8c0.5-0.3,1.1-0.3,1.5-0.1l4.9,2.8
			c0.4,0.2,0.3,0.6-0.1,0.9l-4.8,2.8C245.8,229.7,245.2,229.7,244.8,229.5z"/>
		<path class="st13" d="M252.3,233.8l-4.9-2.8c-0.4-0.2-0.3-0.6,0.1-0.9l4.8-2.8c0.5-0.3,1.1-0.3,1.5-0.1l4.9,2.8
			c0.4,0.2,0.3,0.6-0.1,0.9l-4.8,2.8C253.4,234,252.7,234.1,252.3,233.8z"/>
		<path class="st13" d="M259.8,238.2l-4.9-2.8c-0.4-0.2-0.3-0.6,0.1-0.9l4.8-2.8c0.5-0.3,1.1-0.3,1.5-0.1l4.9,2.8
			c0.4,0.2,0.3,0.6-0.1,0.9l-4.8,2.8C260.9,238.4,260.2,238.4,259.8,238.2z"/>
		<path class="st13" d="M267.4,242.5l-4.9-2.8c-0.4-0.2-0.3-0.6,0.1-0.9l4.8-2.8c0.5-0.3,1.1-0.3,1.5-0.1l4.9,2.8
			c0.4,0.2,0.3,0.6-0.1,0.9l-4.8,2.8C268.4,242.7,267.7,242.7,267.4,242.5z"/>
		<path class="st13" d="M280.7,250.3l-10.6-6.1c-0.4-0.2-0.3-0.6,0.1-0.9l4.8-2.8c0.5-0.3,1.1-0.3,1.5-0.1l10.6,6.1
			c0.4,0.2,0.3,0.6-0.1,0.9l-4.8,2.8C281.8,250.4,281.1,250.5,280.7,250.3z"/>
		<path class="st13" d="M295.4,241.8l-9-5.2c-0.4-0.2-0.3-0.6,0.1-0.9l4.8-2.8c0.5-0.3,1.1-0.3,1.5-0.1l9,5.2
			c0.4,0.2,0.3,0.6-0.1,0.9l-4.8,2.8C296.5,242,295.8,242,295.4,241.8z"/>
		<path class="st13" d="M220.3,206.9l-4.9-2.8c-0.4-0.2-0.3-0.6,0.1-0.9l4.8-2.8c0.5-0.3,1.1-0.3,1.5-0.1l4.9,2.8
			c0.4,0.2,0.3,0.6-0.1,0.9l-4.8,2.8C221.4,207.1,220.7,207.1,220.3,206.9z"/>
		<path class="st13" d="M212.6,202.4l-4.9-2.8c-0.4-0.2-0.3-0.6,0.1-0.9l4.8-2.8c0.5-0.3,1.1-0.3,1.5-0.1l4.9,2.8
			c0.4,0.2,0.3,0.6-0.1,0.9l-4.8,2.8C213.7,202.6,213,202.7,212.6,202.4z"/>
		<path class="st13" d="M204.9,198l-4.9-2.8c-0.4-0.2-0.3-0.6,0.1-0.9l4.8-2.8c0.5-0.3,1.1-0.3,1.5-0.1l4.9,2.8
			c0.4,0.2,0.3,0.6-0.1,0.9l-4.8,2.8C205.9,198.2,205.3,198.2,204.9,198z"/>
		<path class="st13" d="M197.1,193.5l-4.9-2.8c-0.4-0.2-0.3-0.6,0.1-0.9l4.8-2.8c0.5-0.3,1.1-0.3,1.5-0.1l4.9,2.8
			c0.4,0.2,0.3,0.6-0.1,0.9l-4.8,2.8C198.2,193.7,197.5,193.7,197.1,193.5z"/>
		<path class="st13" d="M227.8,211.2l-4.9-2.8c-0.4-0.2-0.3-0.6,0.1-0.9l4.8-2.8c0.5-0.3,1.1-0.3,1.5-0.1l4.9,2.8
			c0.4,0.2,0.3,0.6-0.1,0.9l-4.8,2.8C228.9,211.4,228.2,211.5,227.8,211.2z"/>
		<path class="st13" d="M235.4,215.6l-4.9-2.8c-0.4-0.2-0.3-0.6,0.1-0.9l4.8-2.8c0.5-0.3,1.1-0.3,1.5-0.1l4.9,2.8
			c0.4,0.2,0.3,0.6-0.1,0.9l-4.8,2.8C236.4,215.8,235.7,215.8,235.4,215.6z"/>
		<path class="st13" d="M242.9,219.9l-4.9-2.8c-0.4-0.2-0.3-0.6,0.1-0.9l4.8-2.8c0.5-0.3,1.1-0.3,1.5-0.1l4.9,2.8
			c0.4,0.2,0.3,0.6-0.1,0.9l-4.8,2.8C244,220.1,243.3,220.2,242.9,219.9z"/>
		<path class="st13" d="M250.4,224.3l-4.9-2.8c-0.4-0.2-0.3-0.6,0.1-0.9l4.8-2.8c0.5-0.3,1.1-0.3,1.5-0.1l4.9,2.8
			c0.4,0.2,0.3,0.6-0.1,0.9l-4.8,2.8C251.5,224.5,250.8,224.5,250.4,224.3z"/>
		<path class="st13" d="M257.9,228.6l-4.9-2.8c-0.4-0.2-0.3-0.6,0.1-0.9l4.8-2.8c0.5-0.3,1.1-0.3,1.5-0.1l4.9,2.8
			c0.4,0.2,0.3,0.6-0.1,0.9l-4.8,2.8C259,228.8,258.3,228.9,257.9,228.6z"/>
		<path class="st13" d="M265.5,233l-4.9-2.8c-0.4-0.2-0.3-0.6,0.1-0.9l4.8-2.8c0.5-0.3,1.1-0.3,1.5-0.1l4.9,2.8
			c0.4,0.2,0.3,0.6-0.1,0.9l-4.8,2.8C266.6,233.2,265.9,233.2,265.5,233z"/>
		<path class="st13" d="M273,237.3l-4.9-2.8c-0.4-0.2-0.3-0.6,0.1-0.9l4.8-2.8c0.5-0.3,1.1-0.3,1.5-0.1l4.9,2.8
			c0.4,0.2,0.3,0.6-0.1,0.9l-4.8,2.8C274.1,237.5,273.4,237.5,273,237.3z"/>
		<path class="st13" d="M280.5,241.7l-4.9-2.8c-0.4-0.2-0.3-0.6,0.1-0.9l4.8-2.8c0.5-0.3,1.1-0.3,1.5-0.1l4.9,2.8
			c0.4,0.2,0.3,0.6-0.1,0.9l-4.8,2.8C281.6,241.9,280.9,241.9,280.5,241.7z"/>
		<path class="st13" d="M288.1,246l-4.9-2.8c-0.4-0.2-0.3-0.6,0.1-0.9l4.8-2.8c0.5-0.3,1.1-0.3,1.5-0.1l4.9,2.8
			c0.4,0.2,0.3,0.6-0.1,0.9l-4.8,2.8C289.1,246.2,288.5,246.2,288.1,246z"/>
		<path class="st13" d="M216.3,196.1l-4.9-2.8c-0.4-0.2-0.3-0.6,0.1-0.9l4.8-2.8c0.5-0.3,1.1-0.3,1.5-0.1l4.9,2.8
			c0.4,0.2,0.3,0.6-0.1,0.9l-4.8,2.8C217.4,196.3,216.7,196.4,216.3,196.1z"/>
		<path class="st13" d="M208.8,191.8L204,189c-0.4-0.2-0.3-0.6,0.1-0.9l4.8-2.8c0.5-0.3,1.1-0.3,1.5-0.1l4.9,2.8
			c0.4,0.2,0.3,0.6-0.1,0.9l-4.8,2.8C209.9,192,209.2,192,208.8,191.8z"/>
		<path class="st13" d="M201.3,187.5l-4.9-2.8c-0.4-0.2-0.3-0.6,0.1-0.9l4.8-2.8c0.5-0.3,1.1-0.3,1.5-0.1l4.9,2.8
			c0.4,0.2,0.3,0.6-0.1,0.9l-4.8,2.8C202.4,187.7,201.7,187.7,201.3,187.5z"/>
		<path class="st13" d="M193.9,183.2l-4.9-2.8c-0.4-0.2-0.3-0.6,0.1-0.9l4.8-2.8c0.5-0.3,1.1-0.3,1.5-0.1l4.9,2.8
			c0.4,0.2,0.3,0.6-0.1,0.9l-4.8,2.8C194.9,183.4,194.2,183.4,193.9,183.2z"/>
		<path class="st13" d="M201.6,178.7l-4.9-2.8c-0.4-0.2-0.3-0.6,0.1-0.9l1.6-0.9c0.5-0.3,1.1-0.3,1.5-0.1l4.9,2.8
			c0.4,0.2,0.3,0.6-0.1,0.9l-1.6,0.9C202.6,178.9,202,178.9,201.6,178.7z"/>
		<path class="st13" d="M211.3,184.4l-4.9-2.8c-0.4-0.2-0.3-0.6,0.1-0.9l1.6-0.9c0.5-0.3,1.1-0.3,1.5-0.1l4.9,2.8
			c0.4,0.2,0.3,0.6-0.1,0.9l-1.6,0.9C212.4,184.6,211.7,184.6,211.3,184.4z"/>
		<path class="st13" d="M218.8,188.7l-4.9-2.8c-0.4-0.2-0.3-0.6,0.1-0.9l1.6-0.9c0.5-0.3,1.1-0.3,1.5-0.1l4.9,2.8
			c0.4,0.2,0.3,0.6-0.1,0.9l-1.6,0.9C219.9,188.9,219.2,188.9,218.8,188.7z"/>
		<path class="st13" d="M226.3,193l-4.9-2.8c-0.4-0.2-0.3-0.6,0.1-0.9l1.6-0.9c0.5-0.3,1.1-0.3,1.5-0.1l4.9,2.8
			c0.4,0.2,0.3,0.6-0.1,0.9l-1.6,0.9C227.3,193.2,226.7,193.2,226.3,193z"/>
		<path class="st13" d="M233.7,197.3l-4.9-2.8c-0.4-0.2-0.3-0.6,0.1-0.9l1.6-0.9c0.5-0.3,1.1-0.3,1.5-0.1l4.9,2.8
			c0.4,0.2,0.3,0.6-0.1,0.9l-1.6,0.9C234.8,197.5,234.1,197.5,233.7,197.3z"/>
		<path class="st13" d="M275.4,221.3l-4.9-2.8c-0.4-0.2-0.3-0.6,0.1-0.9l1.6-0.9c0.5-0.3,1.1-0.3,1.5-0.1l4.9,2.8
			c0.4,0.2,0.3,0.6-0.1,0.9l-1.6,0.9C276.5,221.5,275.8,221.6,275.4,221.3z"/>
		<path class="st13" d="M282.8,225.6l-4.9-2.8c-0.4-0.2-0.3-0.6,0.1-0.9l1.6-0.9c0.5-0.3,1.1-0.3,1.5-0.1l4.9,2.8
			c0.4,0.2,0.3,0.6-0.1,0.9l-1.6,0.9C283.9,225.8,283.2,225.9,282.8,225.6z"/>
		<path class="st13" d="M290.3,229.9l-4.9-2.8c-0.4-0.2-0.3-0.6,0.1-0.9l1.6-0.9c0.5-0.3,1.1-0.3,1.5-0.1l4.9,2.8
			c0.4,0.2,0.3,0.6-0.1,0.9l-1.6,0.9C291.4,230.1,290.7,230.2,290.3,229.9z"/>
		<path class="st13" d="M297.8,234.3l-4.9-2.8c-0.4-0.2-0.3-0.6,0.1-0.9l1.6-0.9c0.5-0.3,1.1-0.3,1.5-0.1l4.9,2.8
			c0.4,0.2,0.3,0.6-0.1,0.9l-1.6,0.9C298.8,234.5,298.2,234.5,297.8,234.3z"/>
		<path class="st13" d="M223.9,200.5l-4.9-2.8c-0.4-0.2-0.3-0.6,0.1-0.9l4.8-2.8c0.5-0.3,1.1-0.3,1.5-0.1l4.9,2.8
			c0.4,0.2,0.3,0.6-0.1,0.9l-4.8,2.8C224.9,200.7,224.3,200.7,223.9,200.5z"/>
		<path class="st13" d="M231.4,204.8l-4.9-2.8c-0.4-0.2-0.3-0.6,0.1-0.9l4.8-2.8c0.5-0.3,1.1-0.3,1.5-0.1l4.9,2.8
			c0.4,0.2,0.3,0.6-0.1,0.9l-4.8,2.8C232.5,205,231.8,205.1,231.4,204.8z"/>
		<path class="st13" d="M238.9,209.2l-4.9-2.8c-0.4-0.2-0.3-0.6,0.1-0.9l4.8-2.8c0.5-0.3,1.1-0.3,1.5-0.1l4.9,2.8
			c0.4,0.2,0.3,0.6-0.1,0.9l-4.8,2.8C240,209.4,239.3,209.4,238.9,209.2z"/>
		<path class="st13" d="M246.5,213.5l-4.9-2.8c-0.4-0.2-0.3-0.6,0.1-0.9l4.8-2.8c0.5-0.3,1.1-0.3,1.5-0.1l4.9,2.8
			c0.4,0.2,0.3,0.6-0.1,0.9l-4.8,2.8C247.5,213.7,246.8,213.8,246.5,213.5z"/>
		<path class="st13" d="M254,217.9l-4.9-2.8c-0.4-0.2-0.3-0.6,0.1-0.9l4.8-2.8c0.5-0.3,1.1-0.3,1.5-0.1l4.9,2.8
			c0.4,0.2,0.3,0.6-0.1,0.9l-4.8,2.8C255.1,218.1,254.4,218.1,254,217.9z"/>
		<path class="st13" d="M261.5,222.2l-4.9-2.8c-0.4-0.2-0.3-0.6,0.1-0.9l4.8-2.8c0.5-0.3,1.1-0.3,1.5-0.1l4.9,2.8
			c0.4,0.2,0.3,0.6-0.1,0.9l-4.8,2.8C262.6,222.4,261.9,222.4,261.5,222.2z"/>
		<path class="st13" d="M269,226.6l-4.9-2.8c-0.4-0.2-0.3-0.6,0.1-0.9l4.8-2.8c0.5-0.3,1.1-0.3,1.5-0.1l4.9,2.8
			c0.4,0.2,0.3,0.6-0.1,0.9l-4.8,2.8C270.1,226.8,269.4,226.8,269,226.6z"/>
		<path class="st13" d="M276.6,230.9l-4.9-2.8c-0.4-0.2-0.3-0.6,0.1-0.9l4.8-2.8c0.5-0.3,1.1-0.3,1.5-0.1l4.9,2.8
			c0.4,0.2,0.3,0.6-0.1,0.9l-4.8,2.8C277.7,231.1,277,231.1,276.6,230.9z"/>
		<path class="st13" d="M284.1,235.3l-4.9-2.8c-0.4-0.2-0.3-0.6,0.1-0.9l4.8-2.8c0.5-0.3,1.1-0.3,1.5-0.1l4.9,2.8
			c0.4,0.2,0.3,0.6-0.1,0.9l-4.8,2.8C285.2,235.5,284.5,235.5,284.1,235.3z"/>
		<path class="st13" d="M180.8,201l-14.4-8.3c-0.4-0.2-0.3-0.6,0.1-0.9l4.8-2.8c0.5-0.3,1.1-0.3,1.5-0.1l14.4,8.3
			c0.4,0.2,0.3,0.6-0.1,0.9l-4.8,2.8C181.9,201.2,181.2,201.2,180.8,201z"/>
		<path class="st13" d="M273.3,254.4l-14.4-8.3c-0.4-0.2-0.3-0.6,0.1-0.9l4.8-2.8c0.5-0.3,1.1-0.3,1.5-0.1l14.4,8.3
			c0.4,0.2,0.3,0.6-0.1,0.9l-4.8,2.8C274.4,254.6,273.7,254.7,273.3,254.4z"/>
		<path class="st13" d="M243.2,246.6l-4.9-2.8c-0.4-0.2-0.3-0.6,0.1-0.9l5.8-3.3c0.5-0.3,1.1-0.3,1.5-0.1l4.9,2.8
			c0.4,0.2,0.3,0.6-0.1,0.9l-5.8,3.3C244.3,246.8,243.6,246.9,243.2,246.6z"/>
		<path class="st13" d="M188.5,215.1l-7.8-4.5c-0.4-0.2-0.3-0.6,0.1-0.9l5.8-3.3c0.5-0.3,1.1-0.3,1.5-0.1l7.8,4.5
			c0.4,0.2,0.3,0.6-0.1,0.9l-5.8,3.3C189.6,215.3,188.9,215.3,188.5,215.1z"/>
		<path class="st13" d="M236,242.5l-7.8-4.5c-0.4-0.2-0.3-0.6,0.1-0.9l5.8-3.3c0.5-0.3,1.1-0.3,1.5-0.1l7.8,4.5
			c0.4,0.2,0.3,0.6-0.1,0.9l-5.8,3.3C237,242.7,236.3,242.7,236,242.5z"/>
		<path class="st13" d="M199.4,221.3l-7.8-4.5c-0.4-0.2-0.3-0.6,0.1-0.9l5.8-3.3c0.5-0.3,1.1-0.3,1.5-0.1l7.8,4.5
			c0.4,0.2,0.3,0.6-0.1,0.9l-5.8,3.3C200.5,221.5,199.8,221.6,199.4,221.3z"/>
		<path class="st13" d="M199,212.6l33.9,19.6c0.4,0.2,0.4,0.6,0,0.9l-5.9,3.4c-0.4,0.2-1.1,0.2-1.5,0l-33.9-19.6L199,212.6z"/>
		<path class="st13" d="M264.3,254.5l5.4,3.1c0.3,0.2,0.3,0.5-0.1,0.7l-2.4,1.4c-0.4,0.2-0.9,0.2-1.3,0.1l-5.4-3.1
			c-0.3-0.2-0.3-0.5,0.1-0.7l2.4-1.4C263.4,254.4,263.9,254.3,264.3,254.5z"/>
		<path class="st13" d="M256.7,250.1l5.4,3.1c0.3,0.2,0.3,0.5-0.1,0.7l-2.4,1.4c-0.4,0.2-0.9,0.2-1.3,0.1l-5.4-3.1
			c-0.3-0.2-0.3-0.5,0.1-0.7l2.4-1.4C255.8,250,256.3,250,256.7,250.1z"/>
		<path class="st13" d="M249.1,245.8l5.4,3.1c0.3,0.2,0.3,0.5-0.1,0.7l-2.4,1.4c-0.4,0.2-0.9,0.2-1.3,0.1l-5.4-3.1
			c-0.3-0.2-0.3-0.5,0.1-0.7l2.4-1.4C248.2,245.6,248.8,245.6,249.1,245.8z"/>
		<path class="st13" d="M260.8,247.7l5.4,3.1c0.3,0.2,0.3,0.5-0.1,0.7l-2.4,1.4c-0.4,0.2-0.9,0.2-1.3,0.1l-5.4-3.1
			c-0.3-0.2-0.3-0.5,0.1-0.7l2.4-1.4C259.9,247.6,260.5,247.6,260.8,247.7z"/>
	</g>
	<radialGradient id="SVGID_9_" cx="172.3065" cy="81.28" r="223.3409" gradientUnits="userSpaceOnUse">
		<stop  offset="0" style="stop-color:#E39A65"/>
		<stop  offset="0.4742" style="stop-color:#A92FFB"/>
		<stop  offset="0.5875" style="stop-color:#891CFB"/>
		<stop  offset="0.7262" style="stop-color:#6507FA"/>
		<stop  offset="1" style="stop-color:#3919BB"/>
	</radialGradient>
	<path class="st14" d="M340.5,239l-143.9-83.1c-2.3-1.3-3.4-4.5-2.6-7.1l32.5-105.6c0.8-2.6,3.3-3.7,5.6-2.4L376,123.8
		c2.3,1.3,3.4,4.5,2.6,7.1l-32.5,105.6C345.3,239.2,342.8,240.3,340.5,239z"/>
	<linearGradient id="SVGID_10_" gradientUnits="userSpaceOnUse" x1="196.8542" y1="139.9074" x2="375.8205" y2="139.9074">
		<stop  offset="0" style="stop-color:#3919BB"/>
		<stop  offset="1" style="stop-color:#6507FA"/>
	</linearGradient>
	<path class="st15" d="M339.2,235.3l-139.5-80.6c-2.2-1.2-3.3-4.3-2.5-6.8l31.1-101c0.8-2.5,3.2-3.5,5.3-2.3l139.5,80.6
		c2.2,1.2,3.3,4.3,2.5,6.8l-31.1,101C343.7,235.5,341.3,236.5,339.2,235.3z"/>
	<path class="st16" d="M339.2,235.3l-139.5-80.6c-2.2-1.2-3.3-4.3-2.5-6.8l31.1-101c0.8-2.5,3.2-3.5,5.3-2.3l139.5,80.6
		c2.2,1.2,3.3,4.3,2.5,6.8l-31.1,101C343.7,235.5,341.3,236.5,339.2,235.3z"/>
	<path class="st16" d="M339.2,235.3l-139.5-80.6c-2.2-1.2-3.3-4.3-2.5-6.8l31.1-101c0.8-2.5,3.2-3.5,5.3-2.3l139.5,80.6
		c2.2,1.2,3.3,4.3,2.5,6.8l-31.1,101C343.7,235.5,341.3,236.5,339.2,235.3z"/>
	<path class="st17" d="M331.7,204.4l-94.5-54.5c-1.5-0.9-2.3-2.9-1.7-4.7l21.4-69.4c0.5-1.7,2.2-2.4,3.6-1.6l94.5,54.5
		c1.5,0.9,2.3,2.9,1.7,4.7l-21.4,69.4C334.8,204.6,333.1,205.2,331.7,204.4z"/>
	<g>
		<radialGradient id="SVGID_11_" cx="90.7748" cy="33.5866" r="347.8475" gradientUnits="userSpaceOnUse">
			<stop  offset="0" style="stop-color:#E39A65"/>
			<stop  offset="0.4742" style="stop-color:#A92FFB"/>
			<stop  offset="0.5875" style="stop-color:#891CFB"/>
			<stop  offset="0.7262" style="stop-color:#6507FA"/>
			<stop  offset="1" style="stop-color:#3919BB"/>
		</radialGradient>
		<path class="st18" d="M318.9,206.1l-94.5-54.5c-1.5-0.9-2.3-2.9-1.7-4.7l21.4-69.4c0.5-1.7,2.2-2.4,3.6-1.6l94.5,54.5
			c1.5,0.9,2.3,2.9,1.7,4.7l-21.4,69.4C322,206.2,320.4,206.9,318.9,206.1z"/>
	</g>
	<g class="st19">
		<path class="st13" d="M318.9,206.1l-94.5-54.5c-1.5-0.9-2.3-2.9-1.7-4.7l21.4-69.4c0.5-1.7,2.2-2.4,3.6-1.6l94.5,54.5
			c1.5,0.9,2.3,2.9,1.7,4.7l-21.4,69.4C322,206.2,320.4,206.9,318.9,206.1z"/>
	</g>
	<path class="st11" d="M342.2,130.5l-94.5-54.5c-0.9-0.5-1.9-0.5-2.7,0.1c0.4,0,0.9,0.1,1.4,0.3l94.5,54.5c1.5,0.9,2.3,2.9,1.7,4.7
		l-21.4,69.4c-0.2,0.6-0.5,1.1-1,1.5c1,0,1.9-0.7,2.3-1.9l21.4-69.4C344.4,133.4,343.7,131.3,342.2,130.5z"/>
	<path class="st16" d="M199.8,262.7c-1.3,0-2.5-0.3-3.5-0.8v0L158.4,240c-1-0.6-1.6-1.4-1.6-2.3c0-1.1,0.8-2.1,2.1-2.9l19.5-11.2
		c2.4-1.4,5.9-1.5,8-0.3l37.8,21.8c1,0.6,1.6,1.4,1.6,2.3c0,1.1-0.8,2.1-2.1,2.9l-19.5,11.2C202.9,262.3,201.3,262.7,199.8,262.7z
		 M182.9,223.5c-1.4,0-2.8,0.3-3.9,1l-19.5,11.2c-1,0.6-1.5,1.3-1.5,1.9c0,0.7,0.5,1.1,1,1.4l37.8,21.9c1.7,1,4.9,0.9,6.9-0.3
		l19.5-11.2c1-0.6,1.5-1.3,1.5-1.9c0-0.7-0.5-1.1-1-1.4l-37.8-21.8C185.1,223.8,184,223.5,182.9,223.5z"/>
</g>
<g>
	<g>
		<path class="st11" d="M270.7,112.3l-5.8-3.4c-0.5-0.3-0.8-1.1-0.6-1.7l0,0c0.2-0.6,0.8-0.9,1.3-0.5l5.8,3.4
			c0.5,0.3,0.8,1.1,0.6,1.7l0,0C271.9,112.4,271.3,112.6,270.7,112.3z"/>
		<path class="st11" d="M284.6,120.4l-8.6-5c-0.5-0.3-0.8-1.1-0.6-1.7l0,0c0.2-0.6,0.8-0.9,1.3-0.5l8.6,5c0.5,0.3,0.8,1.1,0.6,1.7
			l0,0C285.8,120.4,285.2,120.7,284.6,120.4z"/>
		<path class="st11" d="M258.9,138.3l-5.8-3.4c-0.5-0.3-0.8-1.1-0.6-1.7l0,0c0.2-0.6,0.8-0.9,1.3-0.5l5.8,3.4
			c0.5,0.3,0.8,1.1,0.6,1.7l0,0C260.1,138.4,259.5,138.6,258.9,138.3z"/>
		<path class="st11" d="M271.3,145.5l-8.6-5c-0.5-0.3-0.8-1.1-0.6-1.7l0,0c0.2-0.6,0.8-0.9,1.3-0.5l8.6,5c0.5,0.3,0.8,1.1,0.6,1.7
			l0,0C272.5,145.6,271.9,145.8,271.3,145.5z"/>
		<path class="st11" d="M253.2,107.7l-3.6-2.1c-0.5-0.3-0.8-1.1-0.6-1.7l0,0c0.2-0.6,0.8-0.9,1.3-0.5l3.6,2.1
			c0.5,0.3,0.8,1.1,0.6,1.7l0,0C254.4,107.8,253.8,108,253.2,107.7z"/>
		<path class="st11" d="M264.2,119.5l-11.1-6.4c-0.5-0.3-0.8-1.1-0.6-1.7l0,0c0.2-0.6,0.8-0.9,1.3-0.5l11.1,6.4
			c0.5,0.3,0.8,1.1,0.6,1.7l0,0C265.3,119.6,264.7,119.8,264.2,119.5z"/>
		<path class="st11" d="M253.9,124.5l-3.6-2.1c-0.5-0.3-0.8-1.1-0.6-1.7l0,0c0.2-0.6,0.8-0.9,1.3-0.5l3.6,2.1
			c0.5,0.3,0.8,1.1,0.6,1.7h0C255.1,124.6,254.5,124.8,253.9,124.5z"/>
		<path class="st11" d="M272.7,157.2l-9.7-5.6c-0.5-0.3-0.8-1.1-0.6-1.7l0,0c0.2-0.6,0.8-0.9,1.3-0.5l9.7,5.6
			c0.5,0.3,0.8,1.1,0.6,1.7l0,0C273.8,157.3,273.2,157.5,272.7,157.2z"/>
		<path class="st11" d="M249.8,133.1l-2.3-1.4c-0.5-0.3-0.8-1.1-0.6-1.7l0,0c0.2-0.6,0.8-0.9,1.3-0.5l2.3,1.4
			c0.5,0.3,0.8,1.1,0.6,1.7l0,0C251,133.1,250.4,133.4,249.8,133.1z"/>
		<path class="st11" d="M247.6,142.7l-2.9-1.7c-0.5-0.3-0.8-1.1-0.6-1.7v0c0.2-0.6,0.8-0.9,1.3-0.5l2.9,1.7c0.5,0.3,0.8,1.1,0.6,1.7
			l0,0C248.8,142.8,248.2,143,247.6,142.7z"/>
		<path class="st11" d="M258.9,149.3l-7.7-4.4c-0.5-0.3-0.8-1.1-0.6-1.7l0,0c0.2-0.6,0.8-0.9,1.3-0.5l7.7,4.4
			c0.5,0.3,0.8,1.1,0.6,1.7l0,0C260.1,149.3,259.5,149.6,258.9,149.3z"/>
		<path class="st11" d="M248.8,148.9l-5.5-3.2c-0.5-0.3-0.8-1.1-0.6-1.7l0,0c0.2-0.6,0.8-0.9,1.3-0.5l5.5,3.2
			c0.5,0.3,0.8,1.1,0.6,1.7l0,0C250,149,249.4,149.2,248.8,148.9z"/>
		<path class="st11" d="M281.1,162l-3.5-2c-0.5-0.3-0.8-1.1-0.6-1.7l0,0c0.2-0.6,0.8-0.9,1.3-0.5l3.5,2c0.5,0.3,0.8,1.1,0.6,1.7l0,0
			C282.2,162.1,281.6,162.4,281.1,162z"/>
		<path class="st11" d="M267.5,132.3l-9.7-5.6c-0.5-0.3-0.8-1.1-0.6-1.7l0,0c0.2-0.6,0.8-0.9,1.3-0.5l9.7,5.6
			c0.5,0.3,0.8,1.1,0.6,1.7l0,0C268.6,132.4,268,132.6,267.5,132.3z"/>
	</g>
	<path class="st20" d="M268.7,127.5l-17-9.8c-0.5-0.3-0.8-1.1-0.6-1.7l0,0c0.2-0.6,0.8-0.9,1.3-0.5l17,9.8c0.5,0.3,0.8,1.1,0.6,1.7
		l0,0C269.8,127.6,269.2,127.8,268.7,127.5z"/>
	<path class="st20" d="M258.6,132.7l-9.7-5.6c-0.5-0.3-0.8-1.1-0.6-1.7l0,0c0.2-0.6,0.8-0.9,1.3-0.5l9.7,5.6
		c0.5,0.3,0.8,1.1,0.6,1.7l0,0C259.8,132.8,259.2,133,258.6,132.7z"/>
	<path class="st20" d="M274.9,136.6l-3.5-2c-0.5-0.3-0.8-1.1-0.6-1.7l0,0c0.2-0.6,0.8-0.9,1.3-0.5l3.5,2c0.5,0.3,0.8,1.1,0.6,1.7
		l0,0C276,136.7,275.4,136.9,274.9,136.6z"/>
	<path class="st20" d="M310.9,135.5l-21-12.1c-0.5-0.3-0.8-1.1-0.6-1.7l0,0c0.2-0.6,0.8-0.9,1.3-0.5l21,12.1
		c0.5,0.3,0.8,1.1,0.6,1.7l0,0C312,135.6,311.4,135.8,310.9,135.5z"/>
	<path class="st21" d="M257.8,143.1l-11.7-6.8c-0.5-0.3-0.8-1.1-0.6-1.7l0,0c0.2-0.6,0.8-0.9,1.3-0.5l11.7,6.8
		c0.5,0.3,0.8,1.1,0.6,1.7l0,0C258.9,143.2,258.4,143.5,257.8,143.1z"/>
	<path class="st21" d="M259.6,105.9l-8.6-5c-0.5-0.3-0.8-1.1-0.6-1.7l0,0c0.2-0.6,0.8-0.9,1.3-0.5l8.6,5c0.5,0.3,0.8,1.1,0.6,1.7
		l0,0C260.7,106,260.1,106.2,259.6,105.9z"/>
	<path class="st20" d="M247,153.3l-10-5.8c-0.5-0.3-0.8-1.1-0.6-1.7l0,0c0.2-0.6,0.8-0.9,1.3-0.5l10,5.8c0.5,0.3,0.8,1.1,0.6,1.7
		l0,0C248.2,153.4,247.6,153.6,247,153.3z"/>
</g>
<g>
	<path class="st11" d="M313.3,124.7l-4.3-2.5c-0.4-0.2-0.6-0.8-0.5-1.2l0,0c0.1-0.4,0.6-0.6,1-0.4l4.3,2.5c0.4,0.2,0.6,0.8,0.5,1.2
		l0,0C314.1,124.8,313.6,125,313.3,124.7z"/>
	<path class="st11" d="M321.4,129.4l-4.3-2.5c-0.4-0.2-0.6-0.8-0.5-1.2l0,0c0.1-0.4,0.6-0.6,1-0.4l4.3,2.5c0.4,0.2,0.6,0.8,0.5,1.2
		l0,0C322.2,129.5,321.8,129.7,321.4,129.4z"/>
	<path class="st11" d="M329.5,134.1l-4.3-2.5c-0.4-0.2-0.6-0.8-0.5-1.2l0,0c0.1-0.4,0.6-0.6,1-0.4l4.3,2.5c0.4,0.2,0.6,0.8,0.5,1.2
		l0,0C330.4,134.2,329.9,134.4,329.5,134.1z"/>
	<path class="st21" d="M333.5,136.5l-0.1-0.1c-0.4-0.2-0.6-0.8-0.5-1.2l0,0c0.1-0.4,0.6-0.6,1-0.4l0.1,0.1c0.4,0.2,0.6,0.8,0.5,1.2
		l0,0C334.4,136.5,333.9,136.7,333.5,136.5z"/>
</g>
<linearGradient id="SVGID_12_" gradientUnits="userSpaceOnUse" x1="74.8382" y1="164.3888" x2="151.6136" y2="164.3888">
	<stop  offset="0" style="stop-color:#E39A65"/>
	<stop  offset="1" style="stop-color:#E95F8D"/>
</linearGradient>
<path class="st22" d="M113.2,186.4c-2.7,0-5.4-0.7-7.8-2.1l0,0l-28.6-16.5c-1.2-0.7-2-2-2-3.4c0-1.4,0.7-2.7,2-3.4l28.6-16.5
	c4.8-2.8,10.8-2.8,15.6,0l28.6,16.5c1.2,0.7,2,2,2,3.4c0,1.4-0.7,2.7-2,3.4L121,184.3C118.6,185.7,115.9,186.4,113.2,186.4z
	 M106.3,182.7c4.2,2.5,9.5,2.5,13.8,0l28.6-16.5c0.7-0.4,1-1.1,1-1.8c0-0.8-0.4-1.4-1-1.8l-28.6-16.5c-4.2-2.5-9.5-2.5-13.8,0
	l-28.6,16.5c-0.7,0.4-1,1.1-1,1.8c0,0.8,0.4,1.4,1,1.8L106.3,182.7z"/>
<g>
	<ellipse class="st6" cx="113.1" cy="164.8" rx="19.6" ry="11.3"/>
	<radialGradient id="SVGID_13_" cx="81.6448" cy="101.7632" r="165.349" gradientUnits="userSpaceOnUse">
		<stop  offset="0" style="stop-color:#E39A65"/>
		<stop  offset="0.1528" style="stop-color:#A92FFB"/>
		<stop  offset="0.4087" style="stop-color:#3919BB"/>
		<stop  offset="0.9311" style="stop-color:#3919BB"/>
	</radialGradient>
	<path class="st23" d="M142.2,84H86.3l5.2,60.6l0,0c0,3.4,2.2,6.7,6.7,9.3c8.9,5.1,23.3,5.1,32.2,0c4.4-2.6,6.7-5.9,6.7-9.3
		L142.2,84z"/>
	<path class="st16" d="M142.2,84H86.3l0.9,10c1.3,1.6,3,3.2,5.2,4.7c10.7,7.1,28.3,8.5,40.4,3.4l-1.9,44.3c-0.1,1.9-0.7,3.8-2,5.3
		c-1.8,2.1-5.3,4.6-12,6.1c4.9-0.3,9.7-1.6,13.5-3.8c4.4-2.6,6.7-5.9,6.7-9.3l4.2-48.6l0,0L142.2,84z"/>
	<ellipse class="st16" cx="114.2" cy="84" rx="28" ry="16.1"/>
	<ellipse class="st16" cx="114.2" cy="78.3" rx="24.1" ry="13.9"/>
	<linearGradient id="SVGID_14_" gradientUnits="userSpaceOnUse" x1="84.5712" y1="81.2799" x2="143.8806" y2="81.2799">
		<stop  offset="0" style="stop-color:#E39A65"/>
		<stop  offset="0.252" style="stop-color:#A92FFB"/>
		<stop  offset="0.5556" style="stop-color:#3919BB"/>
	</linearGradient>
	<path class="st24" d="M143.9,83.2L143.9,83.2L143.9,83.2c0-0.1,0-0.1,0-0.1l-0.5-5.4l0,0.1c-0.2-4.1-3.1-8.2-8.5-11.3
		c-11.4-6.6-29.8-6.6-41.1,0c-5.6,3.2-8.4,7.4-8.5,11.6l0,0l-0.5,4.8c0,0.1,0,0.3,0,0.4l0,0.1l0,0c-0.3,4.6,2.6,9.3,8.7,12.8
		c11.6,6.7,30.4,6.7,41.9,0C141.3,92.5,144.2,87.8,143.9,83.2z"/>
	<linearGradient id="SVGID_15_" gradientUnits="userSpaceOnUse" x1="90.1324" y1="78.2662" x2="138.3166" y2="78.2662">
		<stop  offset="0" style="stop-color:#4F1FEC"/>
		<stop  offset="1" style="stop-color:#A92FFB"/>
	</linearGradient>
	<ellipse class="st25" cx="114.2" cy="78.3" rx="24.1" ry="13.9"/>
	<linearGradient id="SVGID_16_" gradientUnits="userSpaceOnUse" x1="88.9892" y1="78.2662" x2="137.1735" y2="78.2662">
		<stop  offset="0" style="stop-color:#4F1FEC"/>
		<stop  offset="1" style="stop-color:#A92FFB"/>
	</linearGradient>
	<ellipse class="st26" cx="113.1" cy="78.3" rx="24.1" ry="13.9"/>
	<path class="st16" d="M100,70.5c9.4-5.4,24.7-5.4,34.1,0c0.1,0.1,0.2,0.1,0.3,0.2c-0.9-0.8-2-1.6-3.2-2.3c-9.4-5.4-24.7-5.4-34.1,0
		c-9.3,5.4-9.4,14-0.3,19.5C90.8,82.5,91.9,75.2,100,70.5z"/>
	<linearGradient id="SVGID_17_" gradientUnits="userSpaceOnUse" x1="90.1364" y1="71.9152" x2="150.8885" y2="71.9152">
		<stop  offset="0" style="stop-color:#131060"/>
		<stop  offset="0.1857" style="stop-color:#141062"/>
		<stop  offset="0.2823" style="stop-color:#19106A"/>
		<stop  offset="0.3584" style="stop-color:#221078"/>
		<stop  offset="0.4238" style="stop-color:#2E0F8B"/>
		<stop  offset="0.4823" style="stop-color:#3E0FA3"/>
		<stop  offset="0.5359" style="stop-color:#510EC2"/>
		<stop  offset="0.5847" style="stop-color:#680DE5"/>
		<stop  offset="0.6071" style="stop-color:#740DF8"/>
		<stop  offset="0.6179" style="stop-color:#7A14F0"/>
		<stop  offset="0.6826" style="stop-color:#9B3CC3"/>
		<stop  offset="0.7477" style="stop-color:#B75D9D"/>
		<stop  offset="0.8123" style="stop-color:#CC7680"/>
		<stop  offset="0.8762" style="stop-color:#DC886C"/>
		<stop  offset="0.9391" style="stop-color:#E5935F"/>
		<stop  offset="1" style="stop-color:#E8975B"/>
	</linearGradient>
	<path class="st27" d="M97.2,70.8c9.4-5.4,24.7-5.4,34.1,0c4.2,2.4,6.5,5.5,7,8.6c0.6-4-1.7-8-7-11c-9.4-5.4-24.7-5.4-34.1,0
		c-5.2,3-7.6,7.1-7,11C90.7,76.3,93,73.3,97.2,70.8z"/>
	<radialGradient id="SVGID_18_" cx="77.1684" cy="64.4997" r="108.1645" gradientUnits="userSpaceOnUse">
		<stop  offset="0" style="stop-color:#E39A65"/>
		<stop  offset="0.252" style="stop-color:#A92FFB"/>
		<stop  offset="0.7357" style="stop-color:#3919BB"/>
	</radialGradient>
	<path class="st28" d="M135,66.5c-11.3-6.7-29.8-6.8-41.3-0.4S82.1,83.3,93.5,90c11.3,6.7,29.8,6.8,41.3,0.4
		C146.2,83.9,146.3,73.2,135,66.5z M131.3,88.1c-3.1,1.8-6.9,3-11,3.6l-0.4-1.4c-0.2-0.6-0.7-1-1.3-1h-8.7c-0.6,0-1.1,0.4-1.3,1
		l-0.4,1.4c-4-0.6-7.8-1.8-11-3.6c-9.4-5.4-9.4-14.2,0-19.7c9.4-5.4,24.7-5.4,34.1,0C140.7,73.9,140.7,82.7,131.3,88.1z"/>
	<g>
		<path class="st11" d="M131.3,67.4c-9.4-5.4-24.7-5.4-34.1,0c-4.9,2.8-7.3,6.6-7,10.3c0.2-3.4,2.6-6.7,7-9.3
			c9.4-5.4,24.7-5.4,34.1,0c4.5,2.6,6.8,5.9,7,9.3C138.5,74,136.2,70.2,131.3,67.4z"/>
		<path class="st11" d="M134.8,89.3c-11.5,6.5-29.9,6.3-41.3-0.4c-5.4-3.2-8.2-7.3-8.4-11.4c-0.2,4.4,2.6,9,8.4,12.4
			c11.3,6.7,29.8,6.8,41.3,0.4c6-3.4,8.9-7.9,8.6-12.5C143.2,82.1,140.3,86.2,134.8,89.3z"/>
	</g>
	<path class="st29" d="M116.8,92.5h-5.2c-0.4,0-0.7-0.3-0.7-0.7v-0.1c0-0.4,0.3-0.7,0.7-0.7h5.2c0.4,0,0.7,0.3,0.7,0.7v0.1
		C117.5,92.2,117.2,92.5,116.8,92.5z"/>
	<linearGradient id="SVGID_19_" gradientUnits="userSpaceOnUse" x1="110.4112" y1="91.5224" x2="118.8158" y2="91.5224">
		<stop  offset="0" style="stop-color:#131060"/>
		<stop  offset="0.1857" style="stop-color:#141062"/>
		<stop  offset="0.2823" style="stop-color:#19106A"/>
		<stop  offset="0.3584" style="stop-color:#221078"/>
		<stop  offset="0.4238" style="stop-color:#2E0F8B"/>
		<stop  offset="0.4823" style="stop-color:#3E0FA3"/>
		<stop  offset="0.5359" style="stop-color:#510EC2"/>
		<stop  offset="0.5847" style="stop-color:#680DE5"/>
		<stop  offset="0.6071" style="stop-color:#740DF8"/>
		<stop  offset="0.6179" style="stop-color:#7A14F0"/>
		<stop  offset="0.6826" style="stop-color:#9B3CC3"/>
		<stop  offset="0.7477" style="stop-color:#B75D9D"/>
		<stop  offset="0.8123" style="stop-color:#CC7680"/>
		<stop  offset="0.8762" style="stop-color:#DC886C"/>
		<stop  offset="0.9391" style="stop-color:#E5935F"/>
		<stop  offset="1" style="stop-color:#E8975B"/>
	</linearGradient>
	<path class="st30" d="M116.8,91.1h-5.2c-0.4,0-0.7,0.3-0.7,0.7v0.1c0,0.1,0,0.1,0,0.2c0.1-0.3,0.3-0.5,0.6-0.5h5.2
		c0.3,0,0.5,0.2,0.6,0.5c0-0.1,0-0.1,0-0.2v-0.1C117.5,91.4,117.2,91.1,116.8,91.1z"/>
	<g>
		<path class="st20" d="M115,138.3c-0.6,2.4-3.1,3.8-5.5,3.2c-2.4-0.6-3.8-3.1-3.2-5.5c0.6-2.4,2.9-3.1,5.3-2.4
			C114,134.2,115.7,135.9,115,138.3z"/>
		<path class="st20" d="M118.5,133.6c-0.9,0.9-2.1,0.8-2.8,0c-0.8-0.8-0.9-1.9,0-2.8c0.9-0.9,2.6-1.3,3.4-0.5
			C119.9,131,119.4,132.7,118.5,133.6z"/>
		<path class="st20" d="M113.9,129.9c-0.2,1.2-1.2,1.8-2.3,1.6c-1.1-0.2-1.8-1.1-1.6-2.3c0.2-1.2,1.4-2.6,2.4-2.4
			C113.5,127,114.1,128.6,113.9,129.9z"/>
		<path class="st20" d="M108.1,129.3c0.5,1.2-0.1,2.2-1.1,2.6c-1,0.4-2.1,0.1-2.6-1.1c-0.5-1.2-0.2-2.9,0.8-3.3
			C106.2,127,107.6,128.1,108.1,129.3z"/>
	</g>
</g>
<path class="st31" d="M116.1,91.8c0,0,15.6-5.2,9.3-23.2c-6.3-18-18.7-23.4-13.7-37.8c0,0-7.8,11.6-0.5,27.4
	c7.3,15.7,8.9,13.9,8.8,21.5c-0.1,8.9-7.3,12.2-7.3,12.2H116.1z"/>
<path class="st31" d="M117.5,33.2c0,0-1.6-10.8,8.5-21.6c0,0-8.9,19.9-6,29.8C119.9,41.4,117.6,35.1,117.5,33.2z"/>
</svg>
