<?xml version="1.0" encoding="utf-8"?>
<!-- Generator: Adobe Illustrator 23.0.2, SVG Export Plug-In . SVG Version: 6.00 Build 0)  -->
<svg version="1.1" id="Layer_1" focusable="false" xmlns="http://www.w3.org/2000/svg" xmlns:xlink="http://www.w3.org/1999/xlink"
	 x="0px" y="0px" viewBox="0 0 640 364.6" style="enable-background:new 0 0 640 364.6;" xml:space="preserve">
<path d="M587.3,23.4H53.5c-19.2,0-34.7,15.6-34.7,34.7v248.7h10.6V70.3c0-19.2,15.6-34.7,34.7-34.7h510.8
	c19.2,0,34.7,15.6,34.7,34.7v236.5H622V58.1C622.1,38.9,606.5,23.4,587.3,23.4z M317.3,31.3c-1.2,0.6-2.6,0.2-3.3-0.9
	s-0.2-2.6,0.9-3.3c1.2-0.6,2.6-0.2,3.3,0.9S318.5,30.7,317.3,31.3z"/>
<g>
	<rect x="609.7" y="108.4" width="12.4" height="227.3"/>
	<rect x="18.8" y="108.4" width="10.6" height="227.3"/>
</g>
<path d="M203.3,89.3h-84.6C107.8,89.3,99,98.1,99,109v186.6c0,10.9,8.8,19.7,19.7,19.7h84.6c10.9,0,19.7-8.8,19.7-19.7V109
	C223,98.1,214.2,89.3,203.3,89.3z M219.1,291.2c0,10.9-8.8,19.7-19.7,19.7h-76.6c-10.9,0-19.7-8.8-19.7-19.7v-178
	c0-10.9,8.8-19.7,19.7-19.7h76.6c10.9,0,19.7,8.8,19.7,19.7L219.1,291.2L219.1,291.2z"/>
<path d="M191.3,100.4h-59c-3.1,0-5.5-2.5-5.5-5.5l0,0c0-3.1,2.5-5.5,5.5-5.5h59c3.1,0,5.5,2.5,5.5,5.5l0,0
	C196.8,97.9,194.3,100.4,191.3,100.4z"/>
<path d="M195.1,305.8h-67.7c-0.7,0-1.2,0.5-1.2,1.2l0,0c0,0.7,0.5,1.2,1.2,1.2h67.7c0.7,0,1.2-0.5,1.2-1.2l0,0
	C196.3,306.4,195.8,305.8,195.1,305.8z"/>
</svg>
